Benzinova-UltraCondensed-Thin.ufo
<glyph name="exclam" format="1">
  <advance width="160"/>
  <unicode hex="0021"/>
  <outline>
    <contour>
      <point x="80" y="1200" type="curve" smooth="yes"/>
      <point x="72" y="1200"/>
      <point x="64" y="1192"/>
      <point x="64" y="1184" type="curve" smooth="yes"/>
      <point x="64" y="110" type="line" smooth="yes"/>
      <point x="64" y="102"/>
      <point x="72" y="94"/>
      <point x="80" y="94" type="curve" smooth="yes"/>
      <point x="88" y="94"/>
      <point x="96" y="102"/>
      <point x="96" y="110" type="curve" smooth="yes"/>
      <point x="96" y="1184" type="line" smooth="yes"/>
      <point x="96" y="1192"/>
      <point x="88" y="1200"/>
    </contour>
    <contour>
      <point x="80" y="-3" type="curve" smooth="yes"/>
      <point x="93" y="-3"/>
      <point x="104" y="7"/>
      <point x="104" y="20" type="curve" smooth="yes"/>
      <point x="104" y="33"/>
      <point x="93" y="44"/>
      <point x="80" y="44" type="curve" smooth="yes"/>
      <point x="67" y="44"/>
      <point x="56" y="33"/>
      <point x="56" y="20" type="curve" smooth="yes"/>
      <point x="56" y="7"/>
      <point x="67" y="-3"/>
    </contour>
  </outline>
</glyph>
<glyph name="percent" format="1">
  <advance width="616.0"/>
  <unicode hex="0025"/>
  <outline>
    <contour>
      <point x="96" y="0" type="curve" smooth="yes"/>
      <point x="102" y="0"/>
      <point x="106" y="2"/>
      <point x="110" y="8" type="curve" smooth="yes"/>
      <point x="534" y="644" type="line" smooth="yes"/>
      <point x="536" y="646"/>
      <point x="536" y="650"/>
      <point x="536" y="652" type="curve" smooth="yes"/>
      <point x="536" y="660"/>
      <point x="528" y="670"/>
      <point x="520" y="670" type="curve" smooth="yes"/>
      <point x="514" y="670"/>
      <point x="510" y="666"/>
      <point x="506" y="662" type="curve" smooth="yes"/>
      <point x="82" y="24" type="line" smooth="yes"/>
      <point x="80" y="22"/>
      <point x="80" y="20"/>
      <point x="80" y="16" type="curve" smooth="yes"/>
      <point x="80" y="10"/>
      <point x="84" y="0"/>
    </contour>
    <contour>
      <point x="202" y="424" type="curve" smooth="yes"/>
      <point x="270" y="424"/>
      <point x="324" y="480"/>
      <point x="324" y="546" type="curve" smooth="yes"/>
      <point x="324" y="614"/>
      <point x="270" y="668"/>
      <point x="202" y="668" type="curve" smooth="yes"/>
      <point x="134" y="668"/>
      <point x="80" y="614"/>
      <point x="80" y="546" type="curve" smooth="yes"/>
      <point x="80" y="480"/>
      <point x="134" y="424"/>
    </contour>
    <contour>
      <point x="202" y="636" type="curve" smooth="yes"/>
      <point x="252" y="636"/>
      <point x="292" y="596"/>
      <point x="292" y="546" type="curve" smooth="yes"/>
      <point x="292" y="498"/>
      <point x="252" y="456"/>
      <point x="202" y="456" type="curve" smooth="yes"/>
      <point x="152" y="456"/>
      <point x="112" y="498"/>
      <point x="112" y="546" type="curve" smooth="yes"/>
      <point x="112" y="596"/>
      <point x="152" y="636"/>
    </contour>
    <contour>
      <point x="414" y="-16" type="curve" smooth="yes"/>
      <point x="482" y="-16"/>
      <point x="536" y="38"/>
      <point x="536" y="106" type="curve" smooth="yes"/>
      <point x="536" y="174"/>
      <point x="482" y="228"/>
      <point x="414" y="228" type="curve" smooth="yes"/>
      <point x="346" y="228"/>
      <point x="292" y="174"/>
      <point x="292" y="106" type="curve" smooth="yes"/>
      <point x="292" y="38"/>
      <point x="346" y="-16"/>
    </contour>
    <contour>
      <point x="414" y="196" type="curve" smooth="yes"/>
      <point x="464" y="196"/>
      <point x="504" y="156"/>
      <point x="504" y="106" type="curve" smooth="yes"/>
      <point x="504" y="56"/>
      <point x="464" y="16"/>
      <point x="414" y="16" type="curve" smooth="yes"/>
      <point x="364" y="16"/>
      <point x="324" y="56"/>
      <point x="324" y="106" type="curve" smooth="yes"/>
      <point x="324" y="156"/>
      <point x="364" y="196"/>
    </contour>
  </outline>
</glyph>
<glyph name="parenright" format="1">
  <advance width="404.0"/>
  <unicode hex="0029"/>
  <outline>
    <contour>
      <point x="98" y="-32" type="curve" smooth="yes"/>
      <point x="102" y="-32"/>
      <point x="106" y="-30"/>
      <point x="110" y="-28" type="curve" smooth="yes"/>
      <point x="298" y="160"/>
      <point x="324" y="564"/>
      <point x="324" y="600" type="curve" smooth="yes"/>
      <point x="324" y="608"/>
      <point x="314" y="852"/>
      <point x="236" y="1036" type="curve" smooth="yes"/>
      <point x="212" y="1090"/>
      <point x="136" y="1232"/>
      <point x="98" y="1232" type="curve" smooth="yes"/>
      <point x="88" y="1232"/>
      <point x="82" y="1224"/>
      <point x="82" y="1214" type="curve" smooth="yes"/>
      <point x="82" y="1210"/>
      <point x="82" y="1206"/>
      <point x="86" y="1204" type="curve" smooth="yes"/>
      <point x="308" y="986"/>
      <point x="292" y="594"/>
      <point x="292" y="600" type="curve" smooth="yes"/>
      <point x="292" y="604"/>
      <point x="304" y="210"/>
      <point x="86" y="-4" type="curve" smooth="yes"/>
      <point x="82" y="-8"/>
      <point x="82" y="-14"/>
      <point x="82" y="-18" type="curve" smooth="yes"/>
      <point x="82" y="-26"/>
      <point x="90" y="-32"/>
    </contour>
  </outline>
</glyph>
<glyph name="plus" format="1">
  <advance width="612.0"/>
  <unicode hex="002B"/>
  <outline>
    <contour>
      <point x="516" y="442" type="curve"/>
      <point x="322" y="442" type="line"/>
      <point x="322" y="636" type="line" smooth="yes"/>
      <point x="322" y="646"/>
      <point x="314" y="652"/>
      <point x="306" y="652" type="curve" smooth="yes"/>
      <point x="298" y="652"/>
      <point x="290" y="646"/>
      <point x="290" y="636" type="curve" smooth="yes"/>
      <point x="290" y="442" type="line"/>
      <point x="96" y="442" type="line" smooth="yes"/>
      <point x="88" y="442"/>
      <point x="80" y="436"/>
      <point x="80" y="426" type="curve" smooth="yes"/>
      <point x="80" y="418"/>
      <point x="88" y="410"/>
      <point x="96" y="410" type="curve" smooth="yes"/>
      <point x="290" y="410" type="line"/>
      <point x="290" y="216" type="line" smooth="yes"/>
      <point x="290" y="208"/>
      <point x="298" y="200"/>
      <point x="306" y="200" type="curve" smooth="yes"/>
      <point x="314" y="200"/>
      <point x="322" y="208"/>
      <point x="322" y="216" type="curve" smooth="yes"/>
      <point x="322" y="410" type="line"/>
      <point x="516" y="410" type="line" smooth="yes"/>
      <point x="524" y="410"/>
      <point x="532" y="418"/>
      <point x="532" y="426" type="curve" smooth="yes"/>
      <point x="532" y="436"/>
      <point x="524" y="442"/>
    </contour>
  </outline>
</glyph>
<glyph name="comma" format="1">
  <advance width="204.0"/>
  <unicode hex="002C"/>
  <outline>
    <contour>
      <point x="61" y="-63"/>
      <point x="69" y="-71"/>
      <point x="79" y="-71" type="curve" smooth="yes"/>
      <point x="85" y="-71"/>
      <point x="92" y="-67"/>
      <point x="94" y="-62" type="curve"/>
      <point x="122" y="14" type="line" smooth="yes"/>
      <point x="123" y="16"/>
      <point x="123" y="19"/>
      <point x="123" y="21" type="curve" smooth="yes"/>
      <point x="123" y="32"/>
      <point x="113" y="44"/>
      <point x="100" y="44" type="curve" smooth="yes"/>
      <point x="90" y="44"/>
      <point x="78" y="36"/>
      <point x="76" y="26" type="curve"/>
      <point x="63" y="-53"/>
      <point x="62" y="-55"/>
      <point x="62" y="-55" type="curve" smooth="yes"/>
    </contour>
  </outline>
</glyph>
<glyph name="period" format="1">
  <advance width="200"/>
  <unicode hex="002E"/>
  <outline>
    <contour>
      <point x="100" y="-3" type="curve" smooth="yes"/>
      <point x="113" y="-3"/>
      <point x="124" y="7"/>
      <point x="124" y="20" type="curve" smooth="yes"/>
      <point x="124" y="33"/>
      <point x="113" y="44"/>
      <point x="100" y="44" type="curve" smooth="yes"/>
      <point x="87" y="44"/>
      <point x="76" y="33"/>
      <point x="76" y="20" type="curve" smooth="yes"/>
      <point x="76" y="7"/>
      <point x="87" y="-3"/>
    </contour>
  </outline>
</glyph>
<glyph name="seven" format="1">
  <advance width="616.0"/>
  <unicode hex="0037"/>
  <outline>
    <contour>
      <point x="308" y="0" type="curve" smooth="yes"/>
      <point x="316" y="0"/>
      <point x="322" y="6"/>
      <point x="324" y="14" type="curve" smooth="yes"/>
      <point x="536" y="1182" type="line"/>
      <point x="536" y="1190"/>
      <point x="530" y="1200"/>
      <point x="520" y="1200" type="curve" smooth="yes"/>
      <point x="96" y="1200" type="line" smooth="yes"/>
      <point x="88" y="1200"/>
      <point x="80" y="1192"/>
      <point x="80" y="1184" type="curve" smooth="yes"/>
      <point x="80" y="1176"/>
      <point x="88" y="1168"/>
      <point x="96" y="1168" type="curve" smooth="yes"/>
      <point x="500" y="1168" type="line"/>
      <point x="292" y="18" type="line"/>
      <point x="292" y="16"/>
      <point x="292" y="16"/>
      <point x="292" y="14" type="curve" smooth="yes"/>
      <point x="292" y="8"/>
      <point x="298" y="0"/>
    </contour>
  </outline>
</glyph>
<glyph name="less" format="1">
  <advance width="616.0"/>
  <unicode hex="003C"/>
  <outline>
    <contour>
      <point x="518" y="-14" type="curve" smooth="yes"/>
      <point x="526" y="-14"/>
      <point x="534" y="-8"/>
      <point x="534" y="0" type="curve" smooth="yes"/>
      <point x="534" y="4"/>
      <point x="532" y="10"/>
      <point x="530" y="14" type="curve"/>
      <point x="116" y="426" type="line"/>
      <point x="528" y="836" type="line" smooth="yes"/>
      <point x="530" y="838"/>
      <point x="532" y="842"/>
      <point x="532" y="846" type="curve" smooth="yes"/>
      <point x="532" y="856"/>
      <point x="524" y="864"/>
      <point x="514" y="864" type="curve" smooth="yes"/>
      <point x="510" y="864"/>
      <point x="506" y="862"/>
      <point x="504" y="860" type="curve" smooth="yes"/>
      <point x="82" y="438" type="line" smooth="yes"/>
      <point x="78" y="434"/>
      <point x="78" y="428"/>
      <point x="78" y="424" type="curve" smooth="yes"/>
      <point x="78" y="420"/>
      <point x="78" y="416"/>
      <point x="82" y="414" type="curve" smooth="yes"/>
      <point x="506" y="-10" type="line" smooth="yes"/>
      <point x="510" y="-12"/>
      <point x="514" y="-14"/>
    </contour>
  </outline>
</glyph>
<glyph name="question" format="1">
  <advance width="616.0"/>
  <unicode hex="003F"/>
  <outline>
    <contour>
      <point x="308" y="268" type="curve" smooth="yes"/>
      <point x="316" y="268"/>
      <point x="324" y="274"/>
      <point x="324" y="284" type="curve" smooth="yes"/>
      <point x="324" y="628" type="line"/>
      <point x="442" y="636"/>
      <point x="536" y="734"/>
      <point x="536" y="854" type="curve" smooth="yes"/>
      <point x="536" y="1004" type="line" smooth="yes"/>
      <point x="536" y="1130"/>
      <point x="434" y="1232"/>
      <point x="308" y="1232" type="curve" smooth="yes"/>
      <point x="182" y="1232"/>
      <point x="80" y="1130"/>
      <point x="80" y="1004" type="curve" smooth="yes"/>
      <point x="80" y="996"/>
      <point x="88" y="988"/>
      <point x="96" y="988" type="curve" smooth="yes"/>
      <point x="104" y="988"/>
      <point x="112" y="996"/>
      <point x="112" y="1004" type="curve" smooth="yes"/>
      <point x="112" y="1112"/>
      <point x="200" y="1200"/>
      <point x="308" y="1200" type="curve" smooth="yes"/>
      <point x="416" y="1200"/>
      <point x="504" y="1112"/>
      <point x="504" y="1004" type="curve" smooth="yes"/>
      <point x="504" y="854" type="line" smooth="yes"/>
      <point x="504" y="746"/>
      <point x="416" y="658"/>
      <point x="308" y="658" type="curve" smooth="yes"/>
      <point x="300" y="658"/>
      <point x="292" y="652"/>
      <point x="292" y="642" type="curve" smooth="yes"/>
      <point x="292" y="284" type="line" smooth="yes"/>
      <point x="292" y="274"/>
      <point x="300" y="268"/>
    </contour>
    <contour>
      <point x="308" y="-3" type="curve" smooth="yes"/>
      <point x="321" y="-3"/>
      <point x="332" y="7"/>
      <point x="332" y="20" type="curve" smooth="yes"/>
      <point x="332" y="33"/>
      <point x="321" y="44"/>
      <point x="308" y="44" type="curve" smooth="yes"/>
      <point x="295" y="44"/>
      <point x="284" y="33"/>
      <point x="284" y="20" type="curve" smooth="yes"/>
      <point x="284" y="7"/>
      <point x="295" y="-3"/>
    </contour>
  </outline>
</glyph>
<glyph name="at" format="1">
  <advance width="616.0"/>
  <unicode hex="0040"/>
  <outline>
    <contour>
      <point x="380" y="672" type="curve" smooth="yes"/>
      <point x="298" y="672"/>
      <point x="228" y="604"/>
      <point x="226" y="522" type="curve"/>
      <point x="226" y="376" type="line" smooth="yes"/>
      <point x="226" y="290"/>
      <point x="296" y="220"/>
      <point x="380" y="220" type="curve" smooth="yes"/>
      <point x="430" y="220"/>
      <point x="476" y="244"/>
      <point x="504" y="280" type="curve"/>
      <point x="504" y="196" type="line" smooth="yes"/>
      <point x="504" y="88"/>
      <point x="416" y="0"/>
      <point x="308" y="0" type="curve" smooth="yes"/>
      <point x="200" y="0"/>
      <point x="112" y="88"/>
      <point x="112" y="196" type="curve" smooth="yes"/>
      <point x="112" y="844" type="line" smooth="yes"/>
      <point x="112" y="952"/>
      <point x="200" y="1040"/>
      <point x="308" y="1040" type="curve" smooth="yes"/>
      <point x="416" y="1040"/>
      <point x="504" y="952"/>
      <point x="504" y="844" type="curve" smooth="yes"/>
      <point x="504" y="836"/>
      <point x="512" y="828"/>
      <point x="520" y="828" type="curve" smooth="yes"/>
      <point x="528" y="828"/>
      <point x="536" y="836"/>
      <point x="536" y="844" type="curve" smooth="yes"/>
      <point x="536" y="970"/>
      <point x="434" y="1072"/>
      <point x="308" y="1072" type="curve" smooth="yes"/>
      <point x="182" y="1072"/>
      <point x="80" y="970"/>
      <point x="80" y="844" type="curve" smooth="yes"/>
      <point x="80" y="196" type="line" smooth="yes"/>
      <point x="80" y="70"/>
      <point x="182" y="-32"/>
      <point x="308" y="-32" type="curve" smooth="yes"/>
      <point x="434" y="-32"/>
      <point x="536" y="70"/>
      <point x="536" y="196" type="curve" smooth="yes"/>
      <point x="536" y="516" type="line" smooth="yes"/>
      <point x="536" y="602"/>
      <point x="466" y="672"/>
    </contour>
    <contour>
      <point x="504" y="376" type="line"/>
      <point x="504" y="308"/>
      <point x="448" y="252"/>
      <point x="380" y="252" type="curve" smooth="yes"/>
      <point x="312" y="252"/>
      <point x="258" y="308"/>
      <point x="258" y="376" type="curve" smooth="yes"/>
      <point x="258" y="516" type="line" smooth="yes"/>
      <point x="258" y="584"/>
      <point x="312" y="640"/>
      <point x="380" y="640" type="curve" smooth="yes"/>
      <point x="448" y="640"/>
      <point x="504" y="584"/>
      <point x="504" y="516" type="curve" smooth="yes"/>
    </contour>
  </outline>
</glyph>
<glyph name="A" format="1">
  <advance width="600.0"/>
  <unicode hex="0041"/>
  <outline>
    <contour>
      <point x="139" y="300" type="line" smooth="yes"/>
      <point x="130" y="300"/>
      <point x="123" y="293"/>
      <point x="123" y="284" type="curve" smooth="yes"/>
      <point x="123" y="275"/>
      <point x="130" y="268"/>
      <point x="139" y="268" type="curve" smooth="yes"/>
      <point x="462" y="268" type="line" smooth="yes"/>
      <point x="471" y="268"/>
      <point x="478" y="275"/>
      <point x="478" y="284" type="curve" smooth="yes"/>
      <point x="478" y="293"/>
      <point x="471" y="300"/>
      <point x="462" y="300" type="curve" smooth="yes"/>
    </contour>
    <contour>
      <point x="496" y="13" type="line" smooth="yes"/>
      <point x="498" y="5"/>
      <point x="506" y="-1"/>
      <point x="515" y="0" type="curve" smooth="yes"/>
      <point x="523" y="2"/>
      <point x="529" y="10"/>
      <point x="528" y="19" type="curve" smooth="yes"/>
      <point x="317" y="1203" type="line" smooth="yes"/>
      <point x="315" y="1210"/>
      <point x="308" y="1216"/>
      <point x="301" y="1216" type="curve" smooth="yes"/>
      <point x="299" y="1216" type="line" smooth="yes"/>
      <point x="292" y="1216"/>
      <point x="285" y="1210"/>
      <point x="283" y="1203" type="curve" smooth="yes"/>
      <point x="72" y="19" type="line" smooth="yes"/>
      <point x="71" y="10"/>
      <point x="77" y="2"/>
      <point x="85" y="0" type="curve" smooth="yes"/>
      <point x="94" y="-1"/>
      <point x="102" y="5"/>
      <point x="104" y="13" type="curve" smooth="yes"/>
      <point x="315" y="1197" type="line"/>
      <point x="299" y="1184" type="line"/>
      <point x="301" y="1184" type="line"/>
      <point x="285" y="1197" type="line"/>
    </contour>
  </outline>
</glyph>
<glyph name="C" format="1">
  <advance width="616.0"/>
  <unicode hex="0043"/>
  <outline>
    <contour>
      <point x="308" y="-32" type="curve" smooth="yes"/>
      <point x="434" y="-32"/>
      <point x="536" y="70"/>
      <point x="536" y="196" type="curve" smooth="yes"/>
      <point x="536" y="204"/>
      <point x="528" y="212"/>
      <point x="520" y="212" type="curve" smooth="yes"/>
      <point x="512" y="212"/>
      <point x="504" y="204"/>
      <point x="504" y="196" type="curve" smooth="yes"/>
      <point x="504" y="88"/>
      <point x="416" y="0"/>
      <point x="308" y="0" type="curve" smooth="yes"/>
      <point x="200" y="0"/>
      <point x="112" y="88"/>
      <point x="112" y="196" type="curve" smooth="yes"/>
      <point x="112" y="1004" type="line" smooth="yes"/>
      <point x="112" y="1112"/>
      <point x="200" y="1200"/>
      <point x="308" y="1200" type="curve" smooth="yes"/>
      <point x="416" y="1200"/>
      <point x="504" y="1112"/>
      <point x="504" y="1004" type="curve" smooth="yes"/>
      <point x="504" y="996"/>
      <point x="512" y="988"/>
      <point x="520" y="988" type="curve" smooth="yes"/>
      <point x="528" y="988"/>
      <point x="536" y="996"/>
      <point x="536" y="1004" type="curve" smooth="yes"/>
      <point x="536" y="1130"/>
      <point x="434" y="1232"/>
      <point x="308" y="1232" type="curve" smooth="yes"/>
      <point x="182" y="1232"/>
      <point x="80" y="1130"/>
      <point x="80" y="1004" type="curve" smooth="yes"/>
      <point x="80" y="196" type="line" smooth="yes"/>
      <point x="80" y="70"/>
      <point x="182" y="-32"/>
    </contour>
  </outline>
</glyph>
<glyph name="H" format="1">
  <advance width="616.0"/>
  <unicode hex="0048"/>
  <outline>
    <contour>
      <point x="80" y="16" type="line" smooth="yes"/>
      <point x="80" y="7"/>
      <point x="87" y="0"/>
      <point x="96" y="0" type="curve" smooth="yes"/>
      <point x="105" y="0"/>
      <point x="112" y="7"/>
      <point x="112" y="16" type="curve" smooth="yes"/>
      <point x="112" y="1184" type="line" smooth="yes"/>
      <point x="112" y="1193"/>
      <point x="105" y="1200"/>
      <point x="96" y="1200" type="curve" smooth="yes"/>
      <point x="87" y="1200"/>
      <point x="80" y="1193"/>
      <point x="80" y="1184" type="curve" smooth="yes"/>
    </contour>
    <contour>
      <point x="504" y="16" type="line" smooth="yes"/>
      <point x="504" y="7"/>
      <point x="511" y="0"/>
      <point x="520" y="0" type="curve" smooth="yes"/>
      <point x="529" y="0"/>
      <point x="536" y="7"/>
      <point x="536" y="16" type="curve" smooth="yes"/>
      <point x="536" y="1184" type="line" smooth="yes"/>
      <point x="536" y="1193"/>
      <point x="529" y="1200"/>
      <point x="520" y="1200" type="curve" smooth="yes"/>
      <point x="511" y="1200"/>
      <point x="504" y="1193"/>
      <point x="504" y="1184" type="curve" smooth="yes"/>
    </contour>
    <contour>
      <point x="97" y="563" type="line" smooth="yes"/>
      <point x="88" y="563"/>
      <point x="81" y="556"/>
      <point x="81" y="547" type="curve" smooth="yes"/>
      <point x="81" y="538"/>
      <point x="88" y="531"/>
      <point x="97" y="531" type="curve" smooth="yes"/>
      <point x="520" y="531" type="line" smooth="yes"/>
      <point x="529" y="531"/>
      <point x="536" y="538"/>
      <point x="536" y="547" type="curve" smooth="yes"/>
      <point x="536" y="556"/>
      <point x="529" y="563"/>
      <point x="520" y="563" type="curve" smooth="yes"/>
    </contour>
  </outline>
</glyph>
<glyph name="R" format="1">
  <advance width="690.0"/>
  <unicode hex="0052"/>
  <outline>
    <contour>
      <point x="80" y="16" type="line" smooth="yes"/>
      <point x="80" y="7"/>
      <point x="87" y="0"/>
      <point x="96" y="0" type="curve" smooth="yes"/>
      <point x="105" y="0"/>
      <point x="112" y="7"/>
      <point x="112" y="16" type="curve" smooth="yes"/>
      <point x="112" y="1184" type="line"/>
      <point x="96" y="1168" type="line"/>
      <point x="295" y="1168" type="line" smooth="yes"/>
      <point x="463" y="1168"/>
      <point x="584" y="1019"/>
      <point x="584" y="852" type="curve" smooth="yes"/>
      <point x="584" y="685"/>
      <point x="462" y="563"/>
      <point x="295" y="563" type="curve" smooth="yes"/>
      <point x="109" y="563" type="line" smooth="yes"/>
      <point x="100" y="563"/>
      <point x="93" y="556"/>
      <point x="93" y="547" type="curve" smooth="yes"/>
      <point x="93" y="538"/>
      <point x="100" y="531"/>
      <point x="109" y="531" type="curve" smooth="yes"/>
      <point x="295" y="531" type="line" smooth="yes"/>
      <point x="480" y="531"/>
      <point x="616" y="667"/>
      <point x="616" y="852" type="curve" smooth="yes"/>
      <point x="616" y="1037"/>
      <point x="479" y="1200"/>
      <point x="295" y="1200" type="curve" smooth="yes"/>
      <point x="96" y="1200" type="line" smooth="yes"/>
      <point x="87" y="1200"/>
      <point x="80" y="1193"/>
      <point x="80" y="1184" type="curve" smooth="yes"/>
    </contour>
    <contour>
      <point x="600" y="8" type="line" smooth="yes"/>
      <point x="604" y="1"/>
      <point x="615" y="-2"/>
      <point x="622" y="2" type="curve" smooth="yes"/>
      <point x="629" y="6"/>
      <point x="632" y="17"/>
      <point x="628" y="24" type="curve" smooth="yes"/>
      <point x="327" y="546" type="line" smooth="yes"/>
      <point x="323" y="553"/>
      <point x="312" y="556"/>
      <point x="305" y="552" type="curve" smooth="yes"/>
      <point x="298" y="548"/>
      <point x="295" y="537"/>
      <point x="299" y="530" type="curve" smooth="yes"/>
    </contour>
  </outline>
</glyph>
<glyph name="W" format="1">
  <advance width="676.0"/>
  <unicode hex="0057"/>
  <outline>
    <contour>
      <point x="606" y="1183" type="line" smooth="yes"/>
      <point x="606" y="1192"/>
      <point x="599" y="1200"/>
      <point x="591" y="1200" type="curve" smooth="yes"/>
      <point x="582" y="1200"/>
      <point x="574" y="1193"/>
      <point x="574" y="1185" type="curve" smooth="yes"/>
      <point x="514" y="1" type="line"/>
      <point x="545" y="5" type="line"/>
      <point x="353" y="658" type="line" smooth="yes"/>
      <point x="348" y="674"/>
      <point x="328" y="674"/>
      <point x="323" y="658" type="curve" smooth="yes"/>
      <point x="131" y="5" type="line"/>
      <point x="162" y="1" type="line"/>
      <point x="102" y="1185" type="line" smooth="yes"/>
      <point x="102" y="1193"/>
      <point x="94" y="1200"/>
      <point x="85" y="1200" type="curve" smooth="yes"/>
      <point x="77" y="1200"/>
      <point x="70" y="1192"/>
      <point x="70" y="1183" type="curve" smooth="yes"/>
      <point x="130" y="-1" type="line" smooth="yes"/>
      <point x="131" y="-20"/>
      <point x="156" y="-23"/>
      <point x="161" y="-5" type="curve" smooth="yes"/>
      <point x="353" y="648" type="line"/>
      <point x="323" y="648" type="line"/>
      <point x="515" y="-5" type="line" smooth="yes"/>
      <point x="520" y="-23"/>
      <point x="545" y="-20"/>
      <point x="546" y="-1" type="curve" smooth="yes"/>
    </contour>
  </outline>
</glyph>
<glyph name="bracketright" format="1">
  <advance width="384.0"/>
  <unicode hex="005D"/>
  <outline>
    <contour>
      <point x="284" y="-32" type="line"/>
      <point x="292" y="-32"/>
      <point x="300" y="-24"/>
      <point x="300" y="-16" type="curve" smooth="yes"/>
      <point x="300" y="1216" type="line" smooth="yes"/>
      <point x="300" y="1224"/>
      <point x="292" y="1232"/>
      <point x="284" y="1232" type="curve" smooth="yes"/>
      <point x="72" y="1232" type="line" smooth="yes"/>
      <point x="64" y="1232"/>
      <point x="56" y="1224"/>
      <point x="56" y="1216" type="curve" smooth="yes"/>
      <point x="56" y="1208"/>
      <point x="64" y="1200"/>
      <point x="72" y="1200" type="curve" smooth="yes"/>
      <point x="268" y="1200" type="line"/>
      <point x="268" y="0" type="line"/>
      <point x="72" y="0" type="line" smooth="yes"/>
      <point x="64" y="0"/>
      <point x="56" y="-8"/>
      <point x="56" y="-16" type="curve" smooth="yes"/>
      <point x="56" y="-24"/>
      <point x="64" y="-32"/>
      <point x="72" y="-32" type="curve" smooth="yes"/>
    </contour>
  </outline>
</glyph>
<glyph name="underscore" format="1">
  <advance width="616.0"/>
  <unicode hex="005F"/>
  <outline>
    <contour>
      <point x="520" y="-16" type="line"/>
      <point x="528" y="-16"/>
      <point x="536" y="-8"/>
      <point x="536" y="0" type="curve" smooth="yes"/>
      <point x="536" y="8"/>
      <point x="528" y="16"/>
      <point x="520" y="16" type="curve" smooth="yes"/>
      <point x="96" y="16" type="line" smooth="yes"/>
      <point x="88" y="16"/>
      <point x="80" y="8"/>
      <point x="80" y="0" type="curve" smooth="yes"/>
      <point x="80" y="-8"/>
      <point x="88" y="-16"/>
      <point x="96" y="-16" type="curve" smooth="yes"/>
    </contour>
  </outline>
</glyph>
<glyph name="grave" format="1">
  <advance width="318.0"/>
  <unicode hex="0060"/>
  <outline>
    <contour>
      <point x="220" y="1262" type="curve" smooth="yes"/>
      <point x="228" y="1262"/>
      <point x="236" y="1268"/>
      <point x="236" y="1276" type="curve" smooth="yes"/>
      <point x="236" y="1280"/>
      <point x="234" y="1286"/>
      <point x="232" y="1290" type="curve"/>
      <point x="108" y="1412" type="line" smooth="yes"/>
      <point x="104" y="1414"/>
      <point x="100" y="1416"/>
      <point x="96" y="1416" type="curve" smooth="yes"/>
      <point x="88" y="1416"/>
      <point x="82" y="1410"/>
      <point x="82" y="1400" type="curve" smooth="yes"/>
      <point x="82" y="1396"/>
      <point x="82" y="1392"/>
      <point x="86" y="1390" type="curve"/>
      <point x="208" y="1266" type="line"/>
      <point x="212" y="1264"/>
      <point x="216" y="1262"/>
    </contour>
  </outline>
</glyph>
<glyph name="a" format="1">
  <advance width="620.0"/>
  <unicode hex="0061"/>
  <outline>
    <contour>
      <point x="514" y="32" type="line" smooth="yes"/>
      <point x="514" y="27"/>
      <point x="519" y="22"/>
      <point x="524" y="22" type="curve" smooth="yes"/>
      <point x="529" y="22"/>
      <point x="534" y="27"/>
      <point x="534" y="32" type="curve" smooth="yes"/>
      <point x="534" y="324" type="line" smooth="yes"/>
      <point x="534" y="447"/>
      <point x="435" y="546"/>
      <point x="312" y="546" type="curve" smooth="yes"/>
      <point x="189" y="546"/>
      <point x="90" y="447"/>
      <point x="90" y="324" type="curve" smooth="yes"/>
      <point x="90" y="212" type="line" smooth="yes"/>
      <point x="90" y="89"/>
      <point x="189" y="-10"/>
      <point x="312" y="-10" type="curve" smooth="yes"/>
      <point x="435" y="-10"/>
      <point x="534" y="91"/>
      <point x="534" y="186" type="curve" smooth="yes"/>
      <point x="534" y="191"/>
      <point x="529" y="196"/>
      <point x="524" y="196" type="curve" smooth="yes"/>
      <point x="519" y="196"/>
      <point x="514" y="191"/>
      <point x="514" y="186" type="curve" smooth="yes"/>
      <point x="514" y="99"/>
      <point x="423" y="10"/>
      <point x="312" y="10" type="curve" smooth="yes"/>
      <point x="201" y="10"/>
      <point x="110" y="101"/>
      <point x="110" y="212" type="curve" smooth="yes"/>
      <point x="110" y="324" type="line" smooth="yes"/>
      <point x="110" y="435"/>
      <point x="201" y="526"/>
      <point x="312" y="526" type="curve" smooth="yes"/>
      <point x="423" y="526"/>
      <point x="514" y="435"/>
      <point x="514" y="324" type="curve" smooth="yes"/>
    </contour>
    <contour>
      <point x="90" y="640" type="curve" smooth="yes"/>
      <point x="90" y="635"/>
      <point x="95" y="630"/>
      <point x="100" y="630" type="curve" smooth="yes"/>
      <point x="105" y="630"/>
      <point x="110" y="635"/>
      <point x="110" y="640" type="curve" smooth="yes"/>
      <point x="110" y="751"/>
      <point x="201" y="842"/>
      <point x="312" y="842" type="curve" smooth="yes"/>
      <point x="424" y="842"/>
      <point x="514" y="750"/>
      <point x="514" y="614" type="curve" smooth="yes"/>
      <point x="514" y="324" type="line" smooth="yes"/>
      <point x="514" y="319"/>
      <point x="519" y="314"/>
      <point x="524" y="314" type="curve" smooth="yes"/>
      <point x="529" y="314"/>
      <point x="534" y="319"/>
      <point x="534" y="324" type="curve" smooth="yes"/>
      <point x="534" y="614" type="line" smooth="yes"/>
      <point x="534" y="764"/>
      <point x="434" y="862"/>
      <point x="312" y="862" type="curve" smooth="yes"/>
      <point x="189" y="862"/>
      <point x="90" y="763"/>
    </contour>
  </outline>
</glyph>
<glyph name="f" format="1">
  <advance width="364.0"/>
  <unicode hex="0066"/>
  <outline>
    <contour>
      <point x="308" y="1184" type="curve" smooth="yes"/>
      <point x="317" y="1184"/>
      <point x="324" y="1191"/>
      <point x="324" y="1200" type="curve" smooth="yes"/>
      <point x="324" y="1209"/>
      <point x="317" y="1216"/>
      <point x="308" y="1216" type="curve" smooth="yes"/>
      <point x="182" y="1216"/>
      <point x="80" y="1114"/>
      <point x="80" y="988" type="curve" smooth="yes"/>
      <point x="80" y="16" type="line" smooth="yes"/>
      <point x="80" y="7"/>
      <point x="87" y="0"/>
      <point x="96" y="0" type="curve" smooth="yes"/>
      <point x="105" y="0"/>
      <point x="112" y="7"/>
      <point x="112" y="16" type="curve" smooth="yes"/>
      <point x="112" y="988" type="line" smooth="yes"/>
      <point x="112" y="1096"/>
      <point x="200" y="1184"/>
    </contour>
    <contour>
      <point x="236" y="653" type="line" smooth="yes"/>
      <point x="245" y="653"/>
      <point x="252" y="660"/>
      <point x="252" y="669" type="curve" smooth="yes"/>
      <point x="252" y="678"/>
      <point x="245" y="685"/>
      <point x="236" y="685" type="curve" smooth="yes"/>
      <point x="106" y="685" type="line" smooth="yes"/>
      <point x="97" y="685"/>
      <point x="90" y="678"/>
      <point x="90" y="669" type="curve" smooth="yes"/>
      <point x="90" y="660"/>
      <point x="97" y="653"/>
      <point x="106" y="653" type="curve" smooth="yes"/>
    </contour>
  </outline>
</glyph>
<glyph name="g" format="1">
  <advance width="616.0"/>
  <unicode hex="0067"/>
  <outline>
    <contour>
      <point x="536" y="640" type="line" smooth="yes"/>
      <point x="536" y="766"/>
      <point x="434" y="868"/>
      <point x="308" y="868" type="curve" smooth="yes"/>
      <point x="182" y="868"/>
      <point x="80" y="766"/>
      <point x="80" y="640" type="curve" smooth="yes"/>
      <point x="80" y="212" type="line" smooth="yes"/>
      <point x="80" y="86"/>
      <point x="182" y="-16"/>
      <point x="308" y="-16" type="curve" smooth="yes"/>
      <point x="392" y="-16"/>
      <point x="464" y="28"/>
      <point x="504" y="96" type="curve"/>
      <point x="504" y="-252" type="line"/>
      <point x="504" y="-360"/>
      <point x="416" y="-448"/>
      <point x="308" y="-448" type="curve" smooth="yes"/>
      <point x="200" y="-448"/>
      <point x="112" y="-360"/>
      <point x="112" y="-252" type="curve" smooth="yes"/>
      <point x="112" y="-244"/>
      <point x="104" y="-236"/>
      <point x="96" y="-236" type="curve" smooth="yes"/>
      <point x="88" y="-236"/>
      <point x="80" y="-244"/>
      <point x="80" y="-252" type="curve" smooth="yes"/>
      <point x="80" y="-378"/>
      <point x="182" y="-480"/>
      <point x="308" y="-480" type="curve" smooth="yes"/>
      <point x="434" y="-480"/>
      <point x="536" y="-378"/>
      <point x="536" y="-252" type="curve" smooth="yes"/>
      <point x="536" y="212" type="line" smooth="yes"/>
      <point x="536" y="212" type="line" smooth="yes"/>
      <point x="536" y="212" type="line" smooth="yes"/>
    </contour>
    <contour>
      <point x="504" y="212" type="line" smooth="yes"/>
      <point x="504" y="104"/>
      <point x="416" y="16"/>
      <point x="308" y="16" type="curve" smooth="yes"/>
      <point x="200" y="16"/>
      <point x="112" y="104"/>
      <point x="112" y="212" type="curve" smooth="yes"/>
      <point x="112" y="640" type="line" smooth="yes"/>
      <point x="112" y="748"/>
      <point x="200" y="836"/>
      <point x="308" y="836" type="curve" smooth="yes"/>
      <point x="416" y="836"/>
      <point x="504" y="748"/>
      <point x="504" y="640" type="curve"/>
    </contour>
  </outline>
</glyph>
<glyph name="u" format="1">
  <advance width="616.0"/>
  <unicode hex="0075"/>
  <outline>
    <contour>
      <point x="520" y="852" type="curve" smooth="yes"/>
      <point x="512" y="852"/>
      <point x="504" y="844"/>
      <point x="504" y="836" type="curve" smooth="yes"/>
      <point x="504" y="212" type="line" smooth="yes"/>
      <point x="504" y="104"/>
      <point x="416" y="16"/>
      <point x="308" y="16" type="curve" smooth="yes"/>
      <point x="200" y="16"/>
      <point x="112" y="104"/>
      <point x="112" y="212" type="curve" smooth="yes"/>
      <point x="112" y="836" type="line" smooth="yes"/>
      <point x="112" y="844"/>
      <point x="104" y="852"/>
      <point x="96" y="852" type="curve" smooth="yes"/>
      <point x="88" y="852"/>
      <point x="80" y="844"/>
      <point x="80" y="836" type="curve" smooth="yes"/>
      <point x="80" y="212" type="line" smooth="yes"/>
      <point x="80" y="86"/>
      <point x="182" y="-16"/>
      <point x="308" y="-16" type="curve" smooth="yes"/>
      <point x="392" y="-16"/>
      <point x="464" y="28"/>
      <point x="504" y="96" type="curve"/>
      <point x="504" y="16" type="line" smooth="yes"/>
      <point x="504" y="8"/>
      <point x="512" y="0"/>
      <point x="520" y="0" type="curve" smooth="yes"/>
      <point x="528" y="0"/>
      <point x="536" y="8"/>
      <point x="536" y="16" type="curve" smooth="yes"/>
      <point x="536" y="836" type="line" smooth="yes"/>
      <point x="536" y="844"/>
      <point x="528" y="852"/>
    </contour>
  </outline>
</glyph>
<glyph name="y" format="1">
  <advance width="576.0"/>
  <unicode hex="0079"/>
  <outline>
    <contour>
      <point x="516" y="832" type="line"/>
      <point x="518" y="840"/>
      <point x="512" y="850"/>
      <point x="504" y="852" type="curve" smooth="yes"/>
      <point x="496" y="854"/>
      <point x="486" y="848"/>
      <point x="484" y="840" type="curve" smooth="yes"/>
      <point x="288" y="66" type="line"/>
      <point x="92" y="840" type="line" smooth="yes"/>
      <point x="90" y="848"/>
      <point x="80" y="854"/>
      <point x="72" y="852" type="curve" smooth="yes"/>
      <point x="64" y="850"/>
      <point x="58" y="840"/>
      <point x="60" y="832" type="curve" smooth="yes"/>
      <point x="272" y="0" type="line"/>
      <point x="154" y="-460" type="line" smooth="yes"/>
      <point x="152" y="-468"/>
      <point x="158" y="-478"/>
      <point x="166" y="-480" type="curve" smooth="yes"/>
      <point x="168" y="-480"/>
      <point x="170" y="-480"/>
      <point x="170" y="-480" type="curve" smooth="yes"/>
      <point x="178" y="-480"/>
      <point x="184" y="-476"/>
      <point x="186" y="-468" type="curve" smooth="yes"/>
      <point x="304" y="-4" type="line" smooth="yes"/>
      <point x="304" y="-4" type="line" smooth="yes"/>
    </contour>
  </outline>
</glyph>
<glyph name="bar" format="1">
  <advance width="192.0"/>
  <unicode hex="007C"/>
  <outline>
    <contour>
      <point x="96" y="1296" type="curve" smooth="yes"/>
      <point x="88" y="1296"/>
      <point x="80" y="1288"/>
      <point x="80" y="1280" type="curve" smooth="yes"/>
      <point x="80" y="-80" type="line" smooth="yes"/>
      <point x="80" y="-88"/>
      <point x="88" y="-96"/>
      <point x="96" y="-96" type="curve" smooth="yes"/>
      <point x="104" y="-96"/>
      <point x="112" y="-88"/>
      <point x="112" y="-80" type="curve" smooth="yes"/>
      <point x="112" y="1280" type="line" smooth="yes"/>
      <point x="112" y="1288"/>
      <point x="104" y="1296"/>
    </contour>
  </outline>
</glyph>
<glyph name="currency" format="1">
  <advance width="677"/>
  <unicode hex="00A4"/>
  <outline>
    <contour>
      <point x="534" y="610" type="curve" smooth="yes"/>
      <point x="534" y="242" type="line" smooth="yes"/>
      <point x="534" y="134"/>
      <point x="446" y="46"/>
      <point x="338" y="46" type="curve" smooth="yes"/>
      <point x="230" y="46"/>
      <point x="142" y="134"/>
      <point x="142" y="242" type="curve" smooth="yes"/>
      <point x="142" y="610" type="line" smooth="yes"/>
      <point x="142" y="718"/>
      <point x="230" y="806"/>
      <point x="338" y="806" type="curve" smooth="yes"/>
      <point x="446" y="806"/>
      <point x="534" y="718"/>
    </contour>
    <contour>
      <point x="569" y="4" type="line" smooth="yes"/>
      <point x="572" y="1"/>
      <point x="576" y="0"/>
      <point x="581" y="0" type="curve" smooth="yes"/>
      <point x="585" y="0"/>
      <point x="589" y="1"/>
      <point x="592" y="4" type="curve" smooth="yes"/>
      <point x="595" y="7"/>
      <point x="597" y="11"/>
      <point x="597" y="17" type="curve" smooth="yes"/>
      <point x="597" y="21"/>
      <point x="595" y="25"/>
      <point x="592" y="28" type="curve" smooth="yes"/>
      <point x="518" y="102" type="line"/>
      <point x="548" y="140"/>
      <point x="566" y="189"/>
      <point x="566" y="242" type="curve" smooth="yes"/>
      <point x="566" y="610" type="line" smooth="yes"/>
      <point x="566" y="663"/>
      <point x="548" y="712"/>
      <point x="517" y="751" type="curve"/>
      <point x="591" y="825" type="line" smooth="yes"/>
      <point x="594" y="828"/>
      <point x="596" y="832"/>
      <point x="596" y="836" type="curve" smooth="yes"/>
      <point x="596" y="840"/>
      <point x="594" y="845"/>
      <point x="591" y="847" type="curve" smooth="yes"/>
      <point x="589" y="850"/>
      <point x="584" y="852"/>
      <point x="580" y="852" type="curve" smooth="yes"/>
      <point x="576" y="852"/>
      <point x="572" y="850"/>
      <point x="569" y="847" type="curve" smooth="yes"/>
      <point x="496" y="774" type="line"/>
      <point x="455" y="814"/>
      <point x="399" y="838"/>
      <point x="338" y="838" type="curve" smooth="yes"/>
      <point x="277" y="838"/>
      <point x="221" y="814"/>
      <point x="180" y="774" type="curve"/>
      <point x="107" y="847" type="line" smooth="yes"/>
      <point x="104" y="850"/>
      <point x="100" y="852"/>
      <point x="96" y="852" type="curve" smooth="yes"/>
      <point x="92" y="852"/>
      <point x="87" y="850"/>
      <point x="85" y="847" type="curve" smooth="yes"/>
      <point x="82" y="845"/>
      <point x="80" y="840"/>
      <point x="80" y="836" type="curve" smooth="yes"/>
      <point x="80" y="832"/>
      <point x="82" y="828"/>
      <point x="85" y="825" type="curve" smooth="yes"/>
      <point x="159" y="751" type="line"/>
      <point x="128" y="712"/>
      <point x="110" y="663"/>
      <point x="110" y="610" type="curve" smooth="yes"/>
      <point x="110" y="242" type="line" smooth="yes"/>
      <point x="110" y="189"/>
      <point x="128" y="141"/>
      <point x="158" y="102" type="curve"/>
      <point x="84" y="28" type="line" smooth="yes"/>
      <point x="81" y="25"/>
      <point x="80" y="21"/>
      <point x="80" y="16" type="curve" smooth="yes"/>
      <point x="80" y="12"/>
      <point x="81" y="8"/>
      <point x="84" y="5" type="curve" smooth="yes"/>
      <point x="87" y="2"/>
      <point x="91" y="0"/>
      <point x="96" y="0" type="curve" smooth="yes"/>
      <point x="100" y="0"/>
      <point x="104" y="2"/>
      <point x="107" y="5" type="curve" smooth="yes"/>
      <point x="180" y="78" type="line"/>
      <point x="221" y="38"/>
      <point x="277" y="14"/>
      <point x="338" y="14" type="curve" smooth="yes"/>
      <point x="399" y="14"/>
      <point x="455" y="38"/>
      <point x="496" y="78" type="curve"/>
    </contour>
  </outline>
</glyph>
<glyph name="dieresis" format="1">
  <advance width="280.0"/>
  <unicode hex="00A8"/>
  <outline>
    <contour>
      <point x="180" y="1298" type="curve" smooth="yes"/>
      <point x="190" y="1298"/>
      <point x="200" y="1306"/>
      <point x="200" y="1318" type="curve" smooth="yes"/>
      <point x="200" y="1328"/>
      <point x="190" y="1338"/>
      <point x="180" y="1338" type="curve" smooth="yes"/>
      <point x="168" y="1338"/>
      <point x="160" y="1328"/>
      <point x="160" y="1318" type="curve" smooth="yes"/>
      <point x="160" y="1306"/>
      <point x="168" y="1298"/>
    </contour>
    <contour>
      <point x="100" y="1298" type="curve" smooth="yes"/>
      <point x="110" y="1298"/>
      <point x="120" y="1306"/>
      <point x="120" y="1318" type="curve" smooth="yes"/>
      <point x="120" y="1328"/>
      <point x="110" y="1338"/>
      <point x="100" y="1338" type="curve" smooth="yes"/>
      <point x="88" y="1338"/>
      <point x="80" y="1328"/>
      <point x="80" y="1318" type="curve" smooth="yes"/>
      <point x="80" y="1306"/>
      <point x="88" y="1298"/>
    </contour>
  </outline>
</glyph>
<glyph name="copyright" format="1">
  <advance width="616.0"/>
  <unicode hex="00A9"/>
  <outline>
    <contour>
      <point x="416" y="852" type="curve" smooth="yes"/>
      <point x="416" y="844"/>
      <point x="424" y="836"/>
      <point x="432" y="836" type="curve" smooth="yes"/>
      <point x="440" y="836"/>
      <point x="448" y="844"/>
      <point x="448" y="852" type="curve" smooth="yes"/>
      <point x="448" y="926"/>
      <point x="384" y="990"/>
      <point x="310" y="990" type="curve" smooth="yes"/>
      <point x="234" y="990"/>
      <point x="170" y="926"/>
      <point x="170" y="852" type="curve" smooth="yes"/>
      <point x="170" y="354" type="line" smooth="yes"/>
      <point x="170" y="278"/>
      <point x="234" y="214"/>
      <point x="310" y="214" type="curve" smooth="yes"/>
      <point x="384" y="214"/>
      <point x="448" y="278"/>
      <point x="448" y="354" type="curve" smooth="yes"/>
      <point x="448" y="362"/>
      <point x="440" y="370"/>
      <point x="432" y="370" type="curve" smooth="yes"/>
      <point x="424" y="370"/>
      <point x="416" y="362"/>
      <point x="416" y="354" type="curve" smooth="yes"/>
      <point x="416" y="294"/>
      <point x="368" y="246"/>
      <point x="310" y="246" type="curve" smooth="yes"/>
      <point x="250" y="246"/>
      <point x="202" y="294"/>
      <point x="202" y="354" type="curve" smooth="yes"/>
      <point x="202" y="852" type="line" smooth="yes"/>
      <point x="202" y="910"/>
      <point x="250" y="958"/>
      <point x="310" y="958" type="curve" smooth="yes"/>
      <point x="368" y="958"/>
      <point x="416" y="910"/>
    </contour>
    <contour>
      <point x="308" y="-32" type="curve" smooth="yes"/>
      <point x="434" y="-32"/>
      <point x="536" y="70"/>
      <point x="536" y="196" type="curve" smooth="yes"/>
      <point x="536" y="1004" type="line" smooth="yes"/>
      <point x="536" y="1130"/>
      <point x="434" y="1232"/>
      <point x="308" y="1232" type="curve" smooth="yes"/>
      <point x="182" y="1232"/>
      <point x="80" y="1130"/>
      <point x="80" y="1004" type="curve" smooth="yes"/>
      <point x="80" y="196" type="line" smooth="yes"/>
      <point x="80" y="70"/>
      <point x="182" y="-32"/>
    </contour>
    <contour>
      <point x="308" y="1200" type="curve" smooth="yes"/>
      <point x="416" y="1200"/>
      <point x="504" y="1112"/>
      <point x="504" y="1004" type="curve" smooth="yes"/>
      <point x="504" y="196" type="line" smooth="yes"/>
      <point x="504" y="88"/>
      <point x="416" y="0"/>
      <point x="308" y="0" type="curve" smooth="yes"/>
      <point x="200" y="0"/>
      <point x="112" y="88"/>
      <point x="112" y="196" type="curve" smooth="yes"/>
      <point x="112" y="1004" type="line" smooth="yes"/>
      <point x="112" y="1112"/>
      <point x="200" y="1200"/>
    </contour>
  </outline>
</glyph>
<glyph name="guillemotleft" format="1">
  <advance width="424.0"/>
  <unicode hex="00AB"/>
  <outline>
    <contour>
      <point x="224" y="560" type="curve" smooth="yes"/>
      <point x="224" y="568"/>
      <point x="218" y="576"/>
      <point x="210" y="576" type="curve" smooth="yes"/>
      <point x="206" y="576"/>
      <point x="200" y="574"/>
      <point x="196" y="572" type="curve"/>
      <point x="66" y="440" type="line" smooth="yes"/>
      <point x="62" y="436"/>
      <point x="60" y="432"/>
      <point x="60" y="428" type="curve" smooth="yes"/>
      <point x="60" y="424"/>
      <point x="62" y="420"/>
      <point x="66" y="416" type="curve" smooth="yes"/>
      <point x="196" y="284" type="line" smooth="yes"/>
      <point x="200" y="280"/>
      <point x="206" y="280"/>
      <point x="210" y="280" type="curve" smooth="yes"/>
      <point x="220" y="280"/>
      <point x="224" y="288"/>
      <point x="224" y="296" type="curve" smooth="yes"/>
      <point x="224" y="300"/>
      <point x="224" y="304"/>
      <point x="220" y="308" type="curve" smooth="yes"/>
      <point x="98" y="428" type="line"/>
      <point x="220" y="548" type="line"/>
      <point x="222" y="552"/>
      <point x="224" y="556"/>
    </contour>
    <contour>
      <point x="364" y="560" type="curve" smooth="yes"/>
      <point x="364" y="568"/>
      <point x="358" y="576"/>
      <point x="350" y="576" type="curve" smooth="yes"/>
      <point x="346" y="576"/>
      <point x="340" y="574"/>
      <point x="336" y="572" type="curve"/>
      <point x="206" y="440" type="line" smooth="yes"/>
      <point x="202" y="436"/>
      <point x="200" y="432"/>
      <point x="200" y="428" type="curve" smooth="yes"/>
      <point x="200" y="424"/>
      <point x="202" y="420"/>
      <point x="206" y="416" type="curve" smooth="yes"/>
      <point x="336" y="284" type="line" smooth="yes"/>
      <point x="340" y="280"/>
      <point x="346" y="280"/>
      <point x="350" y="280" type="curve" smooth="yes"/>
      <point x="360" y="280"/>
      <point x="364" y="288"/>
      <point x="364" y="296" type="curve" smooth="yes"/>
      <point x="364" y="300"/>
      <point x="364" y="304"/>
      <point x="360" y="308" type="curve" smooth="yes"/>
      <point x="238" y="428" type="line"/>
      <point x="360" y="548" type="line"/>
      <point x="362" y="552"/>
      <point x="364" y="556"/>
    </contour>
  </outline>
</glyph>
<glyph name="macron" format="1">
  <advance width="366.0"/>
  <unicode hex="00AF"/>
  <outline>
    <contour>
      <point x="270" y="1302" type="line"/>
      <point x="278" y="1302"/>
      <point x="286" y="1310"/>
      <point x="286" y="1318" type="curve" smooth="yes"/>
      <point x="286" y="1326"/>
      <point x="278" y="1334"/>
      <point x="270" y="1334" type="curve" smooth="yes"/>
      <point x="96" y="1334" type="line" smooth="yes"/>
      <point x="88" y="1334"/>
      <point x="80" y="1326"/>
      <point x="80" y="1318" type="curve" smooth="yes"/>
      <point x="80" y="1310"/>
      <point x="88" y="1302"/>
      <point x="96" y="1302" type="curve" smooth="yes"/>
    </contour>
  </outline>
</glyph>
<glyph name="plusminus" format="1">
  <advance width="612.0"/>
  <unicode hex="00B1"/>
  <outline>
    <contour>
      <point x="516" y="442" type="curve"/>
      <point x="322" y="442" type="line"/>
      <point x="322" y="636" type="line" smooth="yes"/>
      <point x="322" y="646"/>
      <point x="314" y="652"/>
      <point x="306" y="652" type="curve" smooth="yes"/>
      <point x="298" y="652"/>
      <point x="290" y="646"/>
      <point x="290" y="636" type="curve" smooth="yes"/>
      <point x="290" y="442" type="line"/>
      <point x="96" y="442" type="line" smooth="yes"/>
      <point x="88" y="442"/>
      <point x="80" y="436"/>
      <point x="80" y="426" type="curve" smooth="yes"/>
      <point x="80" y="418"/>
      <point x="88" y="410"/>
      <point x="96" y="410" type="curve" smooth="yes"/>
      <point x="290" y="410" type="line"/>
      <point x="290" y="216" type="line" smooth="yes"/>
      <point x="290" y="208"/>
      <point x="298" y="200"/>
      <point x="306" y="200" type="curve" smooth="yes"/>
      <point x="314" y="200"/>
      <point x="322" y="208"/>
      <point x="322" y="216" type="curve" smooth="yes"/>
      <point x="322" y="410" type="line"/>
      <point x="516" y="410" type="line" smooth="yes"/>
      <point x="524" y="410"/>
      <point x="532" y="418"/>
      <point x="532" y="426" type="curve" smooth="yes"/>
      <point x="532" y="436"/>
      <point x="524" y="442"/>
    </contour>
    <contour>
      <point x="520" y="104" type="line"/>
      <point x="528" y="104"/>
      <point x="536" y="112"/>
      <point x="536" y="120" type="curve" smooth="yes"/>
      <point x="536" y="128"/>
      <point x="528" y="136"/>
      <point x="520" y="136" type="curve" smooth="yes"/>
      <point x="96" y="136" type="line" smooth="yes"/>
      <point x="88" y="136"/>
      <point x="80" y="128"/>
      <point x="80" y="120" type="curve" smooth="yes"/>
      <point x="80" y="112"/>
      <point x="88" y="104"/>
      <point x="96" y="104" type="curve" smooth="yes"/>
    </contour>
  </outline>
</glyph>
<glyph name="cedilla" format="1">
  <advance width="1000.0"/>
  <unicode hex="00B8"/>
  <outline>
    <contour>
      <point x="338" y="-204" type="curve" smooth="yes"/>
      <point x="374" y="-204"/>
      <point x="404" y="-174"/>
      <point x="404" y="-138" type="curve" smooth="yes"/>
      <point x="404" y="-110"/>
      <point x="386" y="-84"/>
      <point x="360" y="-76" type="curve"/>
      <point x="392" y="2" type="line" smooth="yes"/>
      <point x="396" y="10"/>
      <point x="392" y="20"/>
      <point x="384" y="22" type="curve" smooth="yes"/>
      <point x="376" y="26"/>
      <point x="366" y="22"/>
      <point x="364" y="14" type="curve" smooth="yes"/>
      <point x="324" y="-82" type="line" smooth="yes"/>
      <point x="318" y="-94"/>
      <point x="324" y="-104"/>
      <point x="338" y="-104" type="curve" smooth="yes"/>
      <point x="358" y="-104"/>
      <point x="372" y="-118"/>
      <point x="372" y="-138" type="curve" smooth="yes"/>
      <point x="372" y="-158"/>
      <point x="358" y="-172"/>
      <point x="338" y="-172" type="curve" smooth="yes"/>
      <point x="318" y="-172"/>
      <point x="304" y="-158"/>
      <point x="304" y="-138" type="curve" smooth="yes"/>
      <point x="304" y="-130"/>
      <point x="296" y="-122"/>
      <point x="288" y="-122" type="curve" smooth="yes"/>
      <point x="280" y="-122"/>
      <point x="272" y="-130"/>
      <point x="272" y="-138" type="curve" smooth="yes"/>
      <point x="272" y="-174"/>
      <point x="302" y="-204"/>
    </contour>
  </outline>
</glyph>
<glyph name="ordmasculine" format="1">
  <advance width="498"/>
  <unicode hex="00BA"/>
  <outline>
    <contour>
      <point x="220" y="1054" type="line"/>
      <point x="160" y="1054"/>
      <point x="112" y="1102"/>
      <point x="112" y="1162" type="curve"/>
      <point x="112" y="1302" type="line"/>
      <point x="112" y="1360"/>
      <point x="160" y="1408"/>
      <point x="220" y="1408" type="curve"/>
      <point x="280" y="1408" type="line"/>
      <point x="338" y="1408"/>
      <point x="386" y="1360"/>
      <point x="386" y="1302" type="curve"/>
      <point x="386" y="1162" type="line"/>
      <point x="386" y="1102"/>
      <point x="338" y="1054"/>
      <point x="280" y="1054" type="curve"/>
    </contour>
    <contour>
      <point x="418" y="1302" type="line"/>
      <point x="418" y="1376"/>
      <point x="354" y="1440"/>
      <point x="280" y="1440" type="curve"/>
      <point x="280" y="1440"/>
      <point x="220" y="1440"/>
      <point x="220" y="1440" type="curve"/>
      <point x="144" y="1440"/>
      <point x="80" y="1376"/>
      <point x="80" y="1302" type="curve"/>
      <point x="80" y="1302" type="line"/>
      <point x="80" y="1162" type="line"/>
      <point x="80" y="1086"/>
      <point x="144" y="1022"/>
      <point x="220" y="1022" type="curve"/>
      <point x="280" y="1022" type="line"/>
      <point x="354" y="1022"/>
      <point x="418" y="1086"/>
      <point x="418" y="1162" type="curve"/>
    </contour>
  </outline>
</glyph>
<glyph name="guillemotright" format="1">
  <advance width="424.0"/>
  <unicode hex="00BB"/>
  <outline>
    <contour>
      <point x="200" y="560" type="curve" smooth="yes"/>
      <point x="200" y="556"/>
      <point x="202" y="552"/>
      <point x="204" y="548" type="curve"/>
      <point x="326" y="428" type="line"/>
      <point x="204" y="308" type="line" smooth="yes"/>
      <point x="200" y="304"/>
      <point x="200" y="300"/>
      <point x="200" y="296" type="curve" smooth="yes"/>
      <point x="200" y="288"/>
      <point x="204" y="280"/>
      <point x="214" y="280" type="curve" smooth="yes"/>
      <point x="218" y="280"/>
      <point x="224" y="280"/>
      <point x="228" y="284" type="curve" smooth="yes"/>
      <point x="358" y="416" type="line" smooth="yes"/>
      <point x="362" y="420"/>
      <point x="364" y="424"/>
      <point x="364" y="428" type="curve" smooth="yes"/>
      <point x="364" y="432"/>
      <point x="362" y="436"/>
      <point x="358" y="440" type="curve" smooth="yes"/>
      <point x="228" y="572" type="line"/>
      <point x="224" y="574"/>
      <point x="218" y="576"/>
      <point x="214" y="576" type="curve" smooth="yes"/>
      <point x="206" y="576"/>
      <point x="200" y="568"/>
    </contour>
    <contour>
      <point x="60" y="560" type="curve" smooth="yes"/>
      <point x="60" y="556"/>
      <point x="62" y="552"/>
      <point x="64" y="548" type="curve"/>
      <point x="186" y="428" type="line"/>
      <point x="64" y="308" type="line" smooth="yes"/>
      <point x="60" y="304"/>
      <point x="60" y="300"/>
      <point x="60" y="296" type="curve" smooth="yes"/>
      <point x="60" y="288"/>
      <point x="64" y="280"/>
      <point x="74" y="280" type="curve" smooth="yes"/>
      <point x="78" y="280"/>
      <point x="84" y="280"/>
      <point x="88" y="284" type="curve" smooth="yes"/>
      <point x="218" y="416" type="line" smooth="yes"/>
      <point x="222" y="420"/>
      <point x="224" y="424"/>
      <point x="224" y="428" type="curve" smooth="yes"/>
      <point x="224" y="432"/>
      <point x="222" y="436"/>
      <point x="218" y="440" type="curve" smooth="yes"/>
      <point x="88" y="572" type="line"/>
      <point x="84" y="574"/>
      <point x="78" y="576"/>
      <point x="74" y="576" type="curve" smooth="yes"/>
      <point x="66" y="576"/>
      <point x="60" y="568"/>
    </contour>
  </outline>
</glyph>
<glyph name="questiondown" format="1">
  <advance width="616.0"/>
  <unicode hex="00BF"/>
  <outline>
    <contour>
      <point x="308" y="948" type="curve" smooth="yes"/>
      <point x="300" y="948"/>
      <point x="292" y="942"/>
      <point x="292" y="932" type="curve" smooth="yes"/>
      <point x="292" y="588" type="line"/>
      <point x="174" y="580"/>
      <point x="80" y="482"/>
      <point x="80" y="362" type="curve" smooth="yes"/>
      <point x="80" y="212" type="line" smooth="yes"/>
      <point x="80" y="86"/>
      <point x="182" y="-16"/>
      <point x="308" y="-16" type="curve" smooth="yes"/>
      <point x="434" y="-16"/>
      <point x="536" y="86"/>
      <point x="536" y="212" type="curve" smooth="yes"/>
      <point x="536" y="220"/>
      <point x="528" y="228"/>
      <point x="520" y="228" type="curve" smooth="yes"/>
      <point x="512" y="228"/>
      <point x="504" y="220"/>
      <point x="504" y="212" type="curve" smooth="yes"/>
      <point x="504" y="104"/>
      <point x="416" y="16"/>
      <point x="308" y="16" type="curve" smooth="yes"/>
      <point x="200" y="16"/>
      <point x="112" y="104"/>
      <point x="112" y="212" type="curve" smooth="yes"/>
      <point x="112" y="362" type="line" smooth="yes"/>
      <point x="112" y="470"/>
      <point x="200" y="558"/>
      <point x="308" y="558" type="curve" smooth="yes"/>
      <point x="316" y="558"/>
      <point x="324" y="564"/>
      <point x="324" y="574" type="curve" smooth="yes"/>
      <point x="324" y="932" type="line" smooth="yes"/>
      <point x="324" y="942"/>
      <point x="316" y="948"/>
    </contour>
    <contour>
      <point x="308" y="1173" type="curve" smooth="yes"/>
      <point x="321" y="1173"/>
      <point x="332" y="1183"/>
      <point x="332" y="1196" type="curve" smooth="yes"/>
      <point x="332" y="1209"/>
      <point x="321" y="1220"/>
      <point x="308" y="1220" type="curve" smooth="yes"/>
      <point x="295" y="1220"/>
      <point x="284" y="1209"/>
      <point x="284" y="1196" type="curve" smooth="yes"/>
      <point x="284" y="1183"/>
      <point x="295" y="1173"/>
    </contour>
  </outline>
</glyph>
<glyph name="Thorn" format="1">
  <advance width="616.0"/>
  <unicode hex="00DE"/>
  <outline>
    <contour>
      <point x="308" y="836" type="line"/>
      <point x="416" y="836"/>
      <point x="504" y="748"/>
      <point x="504" y="640" type="curve" smooth="yes"/>
      <point x="504" y="212" type="line"/>
      <point x="504" y="104"/>
      <point x="416" y="16"/>
      <point x="308" y="16" type="curve"/>
      <point x="112" y="16" type="line"/>
      <point x="112" y="836" type="line"/>
    </contour>
    <contour>
      <point x="112" y="-160" type="curve" smooth="yes"/>
      <point x="112" y="-16" type="line"/>
      <point x="309" y="-16" type="line"/>
      <point x="435" y="-16"/>
      <point x="536" y="86"/>
      <point x="536" y="212" type="curve" smooth="yes"/>
      <point x="536" y="640" type="line" smooth="yes"/>
      <point x="536" y="766"/>
      <point x="434" y="868"/>
      <point x="308" y="868" type="curve"/>
      <point x="112" y="868" type="line"/>
      <point x="112" y="1200" type="line" smooth="yes"/>
      <point x="112" y="1208"/>
      <point x="104" y="1216"/>
      <point x="96" y="1216" type="curve" smooth="yes"/>
      <point x="88" y="1216"/>
      <point x="80" y="1208"/>
      <point x="80" y="1200" type="curve" smooth="yes"/>
      <point x="80" y="-160" type="line" smooth="yes"/>
      <point x="80" y="-168"/>
      <point x="88" y="-176"/>
      <point x="96" y="-176" type="curve" smooth="yes"/>
      <point x="104" y="-176"/>
      <point x="112" y="-168"/>
    </contour>
  </outline>
</glyph>
<glyph name="oslash" format="1">
  <advance width="500"/>
  <unicode hex="00F8"/>
  <outline>
    <contour>
      <point x="112" y="212" type="curve" smooth="yes"/>
      <point x="112" y="640" type="line" smooth="yes"/>
      <point x="112" y="748"/>
      <point x="200" y="836"/>
      <point x="308" y="836" type="curve" smooth="yes"/>
      <point x="352" y="836"/>
      <point x="393" y="821"/>
      <point x="426" y="797" type="curve"/>
      <point x="165" y="78" type="line"/>
      <point x="132" y="113"/>
      <point x="112" y="160"/>
    </contour>
    <contour>
      <point x="308" y="16" type="curve" smooth="yes"/>
      <point x="265" y="16"/>
      <point x="225" y="30"/>
      <point x="192" y="54" type="curve"/>
      <point x="451" y="774" type="line"/>
      <point x="484" y="739"/>
      <point x="504" y="692"/>
      <point x="504" y="640" type="curve" smooth="yes"/>
      <point x="504" y="212" type="line" smooth="yes"/>
      <point x="504" y="104"/>
      <point x="416" y="16"/>
    </contour>
    <contour>
      <point x="171" y="-6" type="curve" smooth="yes"/>
      <point x="181" y="23" type="line"/>
      <point x="217" y="-2"/>
      <point x="261" y="-16"/>
      <point x="308" y="-16" type="curve" smooth="yes"/>
      <point x="434" y="-16"/>
      <point x="536" y="86"/>
      <point x="536" y="212" type="curve" smooth="yes"/>
      <point x="536" y="640" type="line" smooth="yes"/>
      <point x="536" y="706"/>
      <point x="508" y="766"/>
      <point x="463" y="807" type="curve"/>
      <point x="478" y="847" type="line" smooth="yes"/>
      <point x="481" y="854"/>
      <point x="476" y="864"/>
      <point x="469" y="867" type="curve" smooth="yes"/>
      <point x="461" y="871"/>
      <point x="451" y="865"/>
      <point x="448" y="857" type="curve" smooth="yes"/>
      <point x="437" y="828" type="line"/>
      <point x="400" y="853"/>
      <point x="356" y="868"/>
      <point x="308" y="868" type="curve" smooth="yes"/>
      <point x="182" y="868"/>
      <point x="80" y="766"/>
      <point x="80" y="640" type="curve" smooth="yes"/>
      <point x="80" y="212" type="line" smooth="yes"/>
      <point x="80" y="146"/>
      <point x="108" y="86"/>
      <point x="153" y="45" type="curve"/>
      <point x="139" y="4" type="line" smooth="yes"/>
      <point x="136" y="-4"/>
      <point x="139" y="-13"/>
      <point x="147" y="-14" type="curve" smooth="yes"/>
      <point x="155" y="-21"/>
      <point x="167" y="-16"/>
    </contour>
  </outline>
</glyph>
<glyph name="Hbar" format="1">
  <advance width="616.0"/>
  <unicode hex="0126"/>
  <outline>
    <contour>
      <point x="590" y="978" type="line"/>
      <point x="598" y="978"/>
      <point x="606" y="986"/>
      <point x="606" y="994" type="curve" smooth="yes"/>
      <point x="606" y="1002"/>
      <point x="598" y="1010"/>
      <point x="590" y="1010" type="curve" smooth="yes"/>
      <point x="26" y="1010" type="line" smooth="yes"/>
      <point x="18" y="1010"/>
      <point x="10" y="1002"/>
      <point x="10" y="994" type="curve" smooth="yes"/>
      <point x="10" y="986"/>
      <point x="18" y="978"/>
      <point x="26" y="978" type="curve" smooth="yes"/>
    </contour>
    <component base="H"/>
  </outline>
</glyph>
<glyph name="florin" format="1">
  <advance width="364.0"/>
  <unicode hex="0192"/>
  <outline>
    <contour>
      <point x="-26" y="-124" type="curve"/>
      <point x="48" y="-124"/>
      <point x="112" y="-60"/>
      <point x="112" y="16" type="curve"/>
      <point x="112" y="654" type="line"/>
      <point x="236" y="654" type="line" smooth="yes"/>
      <point x="244" y="654"/>
      <point x="252" y="660"/>
      <point x="252" y="670" type="curve" smooth="yes"/>
      <point x="252" y="678"/>
      <point x="244" y="686"/>
      <point x="236" y="686" type="curve" smooth="yes"/>
      <point x="112" y="686" type="line"/>
      <point x="112" y="988" type="line" smooth="yes"/>
      <point x="112" y="1096"/>
      <point x="200" y="1184"/>
      <point x="308" y="1184" type="curve" smooth="yes"/>
      <point x="316" y="1184"/>
      <point x="324" y="1192"/>
      <point x="324" y="1200" type="curve" smooth="yes"/>
      <point x="324" y="1208"/>
      <point x="316" y="1216"/>
      <point x="308" y="1216" type="curve" smooth="yes"/>
      <point x="182" y="1216"/>
      <point x="80" y="1114"/>
      <point x="80" y="988" type="curve"/>
      <point x="80" y="16" type="line"/>
      <point x="80" y="-44"/>
      <point x="32" y="-92"/>
      <point x="-26" y="-92" type="curve"/>
      <point x="-34" y="-92"/>
      <point x="-42" y="-98"/>
      <point x="-42" y="-108" type="curve" smooth="yes"/>
      <point x="-42" y="-116"/>
      <point x="-34" y="-124"/>
    </contour>
  </outline>
</glyph>
<glyph name="caron" format="1">
  <advance width="648.0"/>
  <unicode hex="02C7"/>
  <outline>
    <contour>
      <point x="312" y="1262" type="curve" smooth="yes"/>
      <point x="316" y="1262"/>
      <point x="320" y="1264"/>
      <point x="324" y="1266" type="curve"/>
      <point x="406" y="1350" type="line" smooth="yes"/>
      <point x="408" y="1352"/>
      <point x="410" y="1356"/>
      <point x="410" y="1360" type="curve" smooth="yes"/>
      <point x="410" y="1370"/>
      <point x="404" y="1376"/>
      <point x="394" y="1376" type="curve" smooth="yes"/>
      <point x="390" y="1376"/>
      <point x="386" y="1374"/>
      <point x="384" y="1372" type="curve" smooth="yes"/>
      <point x="312" y="1300" type="line"/>
      <point x="240" y="1372" type="line" smooth="yes"/>
      <point x="236" y="1374"/>
      <point x="232" y="1376"/>
      <point x="228" y="1376" type="curve" smooth="yes"/>
      <point x="220" y="1376"/>
      <point x="214" y="1370"/>
      <point x="214" y="1360" type="curve" smooth="yes"/>
      <point x="214" y="1356"/>
      <point x="214" y="1352"/>
      <point x="218" y="1350" type="curve"/>
      <point x="300" y="1266" type="line"/>
      <point x="304" y="1264"/>
      <point x="308" y="1262"/>
    </contour>
  </outline>
</glyph>
<glyph name="breve" format="1">
  <advance width="292.0"/>
  <unicode hex="02D8"/>
  <outline>
    <contour>
      <point x="146" y="1262" type="curve" smooth="yes"/>
      <point x="180" y="1262"/>
      <point x="210" y="1290"/>
      <point x="212" y="1326" type="curve"/>
      <point x="212" y="1328" type="line" smooth="yes"/>
      <point x="212" y="1336"/>
      <point x="204" y="1344"/>
      <point x="196" y="1344" type="curve" smooth="yes"/>
      <point x="188" y="1344"/>
      <point x="180" y="1336"/>
      <point x="180" y="1328" type="curve" smooth="yes"/>
      <point x="180" y="1310"/>
      <point x="164" y="1294"/>
      <point x="146" y="1294" type="curve" smooth="yes"/>
      <point x="128" y="1294"/>
      <point x="112" y="1310"/>
      <point x="112" y="1328" type="curve"/>
      <point x="112" y="1336"/>
      <point x="104" y="1344"/>
      <point x="96" y="1344" type="curve" smooth="yes"/>
      <point x="88" y="1344"/>
      <point x="80" y="1336"/>
      <point x="80" y="1328" type="curve" smooth="yes"/>
      <point x="80" y="1292"/>
      <point x="110" y="1262"/>
    </contour>
  </outline>
</glyph>
<glyph name="dotaccent" format="1">
  <advance width="200.0"/>
  <unicode hex="02D9"/>
  <outline>
    <contour>
      <point x="100" y="1298" type="curve" smooth="yes"/>
      <point x="110" y="1298"/>
      <point x="120" y="1306"/>
      <point x="120" y="1318" type="curve" smooth="yes"/>
      <point x="120" y="1328"/>
      <point x="110" y="1338"/>
      <point x="100" y="1338" type="curve" smooth="yes"/>
      <point x="88" y="1338"/>
      <point x="80" y="1328"/>
      <point x="80" y="1318" type="curve" smooth="yes"/>
      <point x="80" y="1306"/>
      <point x="88" y="1298"/>
    </contour>
  </outline>
</glyph>
<glyph name="ogonek" format="1">
  <advance width="292.0"/>
  <unicode hex="02DB"/>
  <outline>
    <contour>
      <point x="146" y="-204" type="curve" smooth="yes"/>
      <point x="182" y="-204"/>
      <point x="212" y="-174"/>
      <point x="212" y="-138" type="curve" smooth="yes"/>
      <point x="212" y="-130"/>
      <point x="204" y="-122"/>
      <point x="196" y="-122" type="curve" smooth="yes"/>
      <point x="188" y="-122"/>
      <point x="180" y="-130"/>
      <point x="180" y="-138" type="curve" smooth="yes"/>
      <point x="180" y="-158"/>
      <point x="166" y="-172"/>
      <point x="146" y="-172" type="curve" smooth="yes"/>
      <point x="126" y="-172"/>
      <point x="112" y="-158"/>
      <point x="112" y="-138" type="curve" smooth="yes"/>
      <point x="112" y="-118"/>
      <point x="126" y="-104"/>
      <point x="146" y="-104" type="curve" smooth="yes"/>
      <point x="160" y="-104"/>
      <point x="166" y="-94"/>
      <point x="160" y="-82" type="curve" smooth="yes"/>
      <point x="120" y="14" type="line" smooth="yes"/>
      <point x="118" y="22"/>
      <point x="108" y="26"/>
      <point x="100" y="22" type="curve" smooth="yes"/>
      <point x="92" y="20"/>
      <point x="88" y="10"/>
      <point x="92" y="2" type="curve" smooth="yes"/>
      <point x="124" y="-76" type="line"/>
      <point x="98" y="-84"/>
      <point x="80" y="-110"/>
      <point x="80" y="-138" type="curve" smooth="yes"/>
      <point x="80" y="-174"/>
      <point x="110" y="-204"/>
    </contour>
  </outline>
</glyph>
<glyph name="Omega" format="1">
  <advance width="616"/>
  <unicode hex="03A9"/>
  <outline>
    <contour>
      <point x="398" y="136" type="move"/>
      <point x="472" y="136"/>
      <point x="536" y="200"/>
      <point x="536" y="276" type="curve"/>
      <point x="536" y="1004" type="line" smooth="yes"/>
      <point x="536" y="1130"/>
      <point x="434" y="1232"/>
      <point x="308" y="1232" type="curve" smooth="yes"/>
      <point x="182" y="1232"/>
      <point x="80" y="1130"/>
      <point x="80" y="1004" type="curve" smooth="yes"/>
      <point x="80" y="276" type="line"/>
      <point x="80" y="200"/>
      <point x="144" y="136"/>
      <point x="220" y="136" type="curve" smooth="yes"/>
      <point x="220" y="136"/>
      <point x="220" y="168"/>
      <point x="220" y="168" type="curve"/>
      <point x="160" y="168"/>
      <point x="112" y="216"/>
      <point x="112" y="276" type="curve"/>
      <point x="112" y="1004" type="line" smooth="yes"/>
      <point x="112" y="1112"/>
      <point x="200" y="1200"/>
      <point x="308" y="1200" type="curve" smooth="yes"/>
      <point x="416" y="1200"/>
      <point x="504" y="1112"/>
      <point x="504" y="1004" type="curve" smooth="yes"/>
      <point x="504" y="276" type="line"/>
      <point x="504" y="216"/>
      <point x="456" y="168"/>
      <point x="398" y="168" type="curve" smooth="yes"/>
    </contour>
    <contour>
      <point x="398" y="168" type="curve" smooth="yes"/>
      <point x="390" y="168"/>
      <point x="382" y="160"/>
      <point x="382" y="152" type="curve" smooth="yes"/>
      <point x="382" y="-60" type="line" smooth="yes"/>
      <point x="382" y="-68"/>
      <point x="390" y="-76"/>
      <point x="398" y="-76" type="curve" smooth="yes"/>
      <point x="536" y="-76" type="line" smooth="yes"/>
      <point x="544" y="-76"/>
      <point x="552" y="-68"/>
      <point x="552" y="-60" type="curve" smooth="yes"/>
      <point x="552" y="-52"/>
      <point x="544" y="-44"/>
      <point x="536" y="-44" type="curve" smooth="yes"/>
      <point x="414" y="-44" type="line"/>
      <point x="414" y="152" type="line"/>
      <point x="414" y="160"/>
      <point x="406" y="168"/>
    </contour>
    <contour>
      <point x="220" y="168" type="curve" smooth="yes"/>
      <point x="212" y="168"/>
      <point x="204" y="160"/>
      <point x="204" y="152" type="curve"/>
      <point x="204" y="-44" type="line"/>
      <point x="80" y="-44" type="line" smooth="yes"/>
      <point x="72" y="-44"/>
      <point x="64" y="-52"/>
      <point x="64" y="-60" type="curve" smooth="yes"/>
      <point x="64" y="-68"/>
      <point x="72" y="-76"/>
      <point x="80" y="-76" type="curve" smooth="yes"/>
      <point x="220" y="-76" type="line" smooth="yes"/>
      <point x="228" y="-76"/>
      <point x="236" y="-68"/>
      <point x="236" y="-60" type="curve" smooth="yes"/>
      <point x="236" y="152" type="line" smooth="yes"/>
      <point x="236" y="160"/>
      <point x="228" y="168"/>
    </contour>
  </outline>
</glyph>
<glyph name="pi" format="1">
  <advance width="676"/>
  <unicode hex="03C0"/>
  <outline>
    <contour>
      <point x="580" y="-16" type="curve"/>
      <point x="588" y="-16"/>
      <point x="596" y="-8"/>
      <point x="596" y="0" type="curve" smooth="yes"/>
      <point x="596" y="8"/>
      <point x="588" y="16"/>
      <point x="580" y="16" type="curve"/>
      <point x="520" y="16"/>
      <point x="472" y="64"/>
      <point x="472" y="124" type="curve"/>
      <point x="472" y="820" type="line"/>
      <point x="580" y="820" type="line" smooth="yes"/>
      <point x="588" y="820"/>
      <point x="596" y="828"/>
      <point x="596" y="836" type="curve" smooth="yes"/>
      <point x="596" y="844"/>
      <point x="588" y="852"/>
      <point x="580" y="852" type="curve"/>
      <point x="96" y="852" type="line" smooth="yes"/>
      <point x="88" y="852"/>
      <point x="80" y="844"/>
      <point x="80" y="836" type="curve" smooth="yes"/>
      <point x="80" y="828"/>
      <point x="88" y="820"/>
      <point x="96" y="820" type="curve" smooth="yes"/>
      <point x="192" y="820" type="line"/>
      <point x="192" y="16" type="line" smooth="yes"/>
      <point x="192" y="8"/>
      <point x="200" y="0"/>
      <point x="208" y="0" type="curve" smooth="yes"/>
      <point x="216" y="0"/>
      <point x="224" y="8"/>
      <point x="224" y="16" type="curve" smooth="yes"/>
      <point x="224" y="820" type="line"/>
      <point x="440" y="820" type="line"/>
      <point x="440" y="124" type="line"/>
      <point x="440" y="48"/>
      <point x="504" y="-16"/>
    </contour>
  </outline>
</glyph>
<glyph name="emdash" format="1">
  <advance width="2000"/>
  <unicode hex="2014"/>
  <outline>
    <contour>
      <point x="96" y="442" type="line" smooth="yes"/>
      <point x="87" y="442"/>
      <point x="80" y="435"/>
      <point x="80" y="426" type="curve" smooth="yes"/>
      <point x="80" y="417"/>
      <point x="87" y="410"/>
      <point x="96" y="410" type="curve" smooth="yes"/>
      <point x="1904" y="410" type="line" smooth="yes"/>
      <point x="1913" y="410"/>
      <point x="1920" y="417"/>
      <point x="1920" y="426" type="curve" smooth="yes"/>
      <point x="1920" y="435"/>
      <point x="1913" y="442"/>
      <point x="1904" y="442" type="curve" smooth="yes"/>
    </contour>
  </outline>
</glyph>
<glyph name="quotesinglbase" format="1">
  <advance width="184"/>
  <unicode hex="201A"/>
  <outline>
    <contour>
      <point x="124" y="-20" type="curve" smooth="yes"/>
      <point x="124" y="-10"/>
      <point x="114" y="0"/>
      <point x="104" y="0" type="curve" smooth="yes"/>
      <point x="94" y="0"/>
      <point x="87" y="-6"/>
      <point x="84" y="-16" type="curve" smooth="yes"/>
      <point x="60" y="-96" type="line"/>
      <point x="60" y="-96"/>
      <point x="59" y="-99"/>
      <point x="59" y="-100" type="curve" smooth="yes"/>
      <point x="59" y="-108"/>
      <point x="64" y="-116"/>
      <point x="74" y="-116" type="curve" smooth="yes"/>
      <point x="82" y="-116"/>
      <point x="88" y="-112"/>
      <point x="90" y="-106" type="curve" smooth="yes"/>
      <point x="122" y="-28" type="line" smooth="yes"/>
      <point x="123" y="-26"/>
      <point x="124" y="-24"/>
    </contour>
  </outline>
</glyph>
<glyph name="bullet" format="1">
  <advance width="374"/>
  <unicode hex="2022"/>
  <outline>
    <contour>
      <point x="188" y="318" type="curve" smooth="yes"/>
      <point x="246" y="318"/>
      <point x="294" y="366"/>
      <point x="294" y="426" type="curve" smooth="yes"/>
      <point x="294" y="484"/>
      <point x="246" y="532"/>
      <point x="188" y="532" type="curve" smooth="yes"/>
      <point x="128" y="532"/>
      <point x="80" y="484"/>
      <point x="80" y="426" type="curve" smooth="yes"/>
      <point x="80" y="366"/>
      <point x="128" y="318"/>
    </contour>
  </outline>
</glyph>
<glyph name="fraction" format="1">
  <advance width="808"/>
  <unicode hex="2044"/>
  <outline>
    <contour>
      <point x="791" y="1216"/>
      <point x="790" y="1216"/>
      <point x="789" y="1216" type="curve" smooth="yes"/>
      <point x="785" y="1215"/>
      <point x="782" y="1212"/>
      <point x="780" y="1209" type="curve" smooth="yes"/>
      <point x="2" y="11" type="line" smooth="yes"/>
      <point x="1" y="9"/>
      <point x="0" y="7"/>
      <point x="0" y="5" type="curve" smooth="yes"/>
      <point x="0" y="3"/>
      <point x="1" y="2"/>
      <point x="1" y="0" type="curve" smooth="yes"/>
      <point x="3" y="-9"/>
      <point x="9" y="-13"/>
      <point x="16" y="-13" type="curve" smooth="yes"/>
      <point x="17" y="-13"/>
      <point x="18" y="-13"/>
      <point x="19" y="-13" type="curve" smooth="yes"/>
      <point x="23" y="-12"/>
      <point x="26" y="-9"/>
      <point x="28" y="-6" type="curve" smooth="yes"/>
      <point x="806" y="1192" type="line" smooth="yes"/>
      <point x="807" y="1194"/>
      <point x="808" y="1197"/>
      <point x="808" y="1200" type="curve" smooth="yes"/>
      <point x="808" y="1201"/>
      <point x="808" y="1202"/>
      <point x="808" y="1203" type="curve" smooth="yes"/>
      <point x="806" y="1211"/>
      <point x="800" y="1216"/>
      <point x="792" y="1216" type="curve" smooth="yes"/>
    </contour>
  </outline>
</glyph>
<glyph name="franc" format="1">
  <advance width="632.0"/>
  <unicode hex="20A3"/>
  <outline>
    <contour>
      <point x="323" y="0" type="curve" smooth="yes"/>
      <point x="331" y="0"/>
      <point x="339" y="8"/>
      <point x="339" y="16" type="curve" smooth="yes"/>
      <point x="339" y="640" type="line" smooth="yes"/>
      <point x="339" y="748"/>
      <point x="427" y="836"/>
      <point x="535" y="836" type="curve" smooth="yes"/>
      <point x="543" y="836"/>
      <point x="551" y="844"/>
      <point x="551" y="852" type="curve" smooth="yes"/>
      <point x="551" y="860"/>
      <point x="543" y="868"/>
      <point x="535" y="868" type="curve" smooth="yes"/>
      <point x="451" y="868"/>
      <point x="379" y="824"/>
      <point x="339" y="756" type="curve"/>
      <point x="339" y="820" type="line" smooth="yes"/>
      <point x="339" y="828"/>
      <point x="331" y="836"/>
      <point x="323" y="836" type="curve"/>
      <point x="315" y="836"/>
      <point x="307" y="828"/>
      <point x="307" y="820" type="curve" smooth="yes"/>
      <point x="307" y="752" type="line"/>
      <point x="112" y="752" type="line"/>
      <point x="112" y="1168" type="line"/>
      <point x="536" y="1168" type="line" smooth="yes"/>
      <point x="544" y="1168"/>
      <point x="552" y="1176"/>
      <point x="552" y="1184" type="curve" smooth="yes"/>
      <point x="552" y="1192"/>
      <point x="544" y="1200"/>
      <point x="536" y="1200" type="curve"/>
      <point x="96" y="1200" type="line" smooth="yes"/>
      <point x="88" y="1200"/>
      <point x="80" y="1192"/>
      <point x="80" y="1184" type="curve" smooth="yes"/>
      <point x="80" y="16" type="line" smooth="yes"/>
      <point x="80" y="8"/>
      <point x="88" y="0"/>
      <point x="96" y="0" type="curve" smooth="yes"/>
      <point x="104" y="0"/>
      <point x="112" y="8"/>
      <point x="112" y="16" type="curve" smooth="yes"/>
      <point x="112" y="720" type="line"/>
      <point x="307" y="720" type="line"/>
      <point x="307" y="16" type="line" smooth="yes"/>
      <point x="307" y="8"/>
      <point x="315" y="0"/>
    </contour>
  </outline>
</glyph>
<glyph name="peseta" format="1">
  <advance width="1376"/>
  <unicode hex="20A7"/>
  <outline>
    <contour>
      <point x="526" y="1094" type="curve" smooth="yes"/>
      <point x="466" y="1162"/>
      <point x="384" y="1200"/>
      <point x="294" y="1200" type="curve" smooth="yes"/>
      <point x="96" y="1200" type="line" smooth="yes"/>
      <point x="88" y="1200"/>
      <point x="80" y="1192"/>
      <point x="80" y="1184" type="curve" smooth="yes"/>
      <point x="80" y="16" type="line" smooth="yes"/>
      <point x="80" y="8"/>
      <point x="88" y="0"/>
      <point x="96" y="0" type="curve" smooth="yes"/>
      <point x="104" y="0"/>
      <point x="112" y="8"/>
      <point x="112" y="16" type="curve" smooth="yes"/>
      <point x="112" y="530" type="line"/>
      <point x="294" y="530" type="line" smooth="yes"/>
      <point x="480" y="530"/>
      <point x="616" y="672"/>
      <point x="616" y="852" type="curve" smooth="yes"/>
      <point x="616" y="942"/>
      <point x="584" y="1028"/>
    </contour>
    <contour>
      <point x="502" y="644" type="curve" smooth="yes"/>
      <point x="450" y="592"/>
      <point x="376" y="562"/>
      <point x="294" y="562" type="curve" smooth="yes"/>
      <point x="112" y="562" type="line"/>
      <point x="112" y="1168" type="line"/>
      <point x="294" y="1168" type="line" smooth="yes"/>
      <point x="458" y="1168"/>
      <point x="584" y="1022"/>
      <point x="584" y="852" type="curve" smooth="yes"/>
      <point x="584" y="772"/>
      <point x="556" y="698"/>
    </contour>
    <contour>
      <point x="868" y="16" type="curve" smooth="yes"/>
      <point x="760" y="16"/>
      <point x="672" y="104"/>
      <point x="672" y="212" type="curve" smooth="yes"/>
      <point x="672" y="654" type="line"/>
      <point x="796" y="654" type="line" smooth="yes"/>
      <point x="804" y="654"/>
      <point x="812" y="660"/>
      <point x="812" y="670" type="curve" smooth="yes"/>
      <point x="812" y="678"/>
      <point x="804" y="686"/>
      <point x="796" y="686" type="curve" smooth="yes"/>
      <point x="672" y="686" type="line"/>
      <point x="672" y="1034" type="line" smooth="yes"/>
      <point x="672" y="1042"/>
      <point x="664" y="1050"/>
      <point x="656" y="1050" type="curve" smooth="yes"/>
      <point x="648" y="1050"/>
      <point x="640" y="1042"/>
      <point x="640" y="1034" type="curve"/>
      <point x="640" y="670" type="line"/>
      <point x="640" y="670" type="line" smooth="yes"/>
      <point x="640" y="670" type="line" smooth="yes"/>
      <point x="640" y="212" type="line" smooth="yes"/>
      <point x="640" y="86"/>
      <point x="742" y="-16"/>
      <point x="868" y="-16" type="curve" smooth="yes"/>
      <point x="876" y="-16"/>
      <point x="884" y="-8"/>
      <point x="884" y="0" type="curve" smooth="yes"/>
      <point x="884" y="8"/>
      <point x="876" y="16"/>
    </contour>
    <contour>
      <point x="1068" y="444" type="curve" smooth="yes"/>
      <point x="960" y="444"/>
      <point x="872" y="532"/>
      <point x="872" y="640" type="curve" smooth="yes"/>
      <point x="872" y="748"/>
      <point x="960" y="836"/>
      <point x="1068" y="836" type="curve" smooth="yes"/>
      <point x="1176" y="836"/>
      <point x="1264" y="748"/>
      <point x="1264" y="640" type="curve" smooth="yes"/>
      <point x="1264" y="632"/>
      <point x="1272" y="624"/>
      <point x="1280" y="624" type="curve" smooth="yes"/>
      <point x="1288" y="624"/>
      <point x="1296" y="632"/>
      <point x="1296" y="640" type="curve" smooth="yes"/>
      <point x="1296" y="766"/>
      <point x="1194" y="868"/>
      <point x="1068" y="868" type="curve" smooth="yes"/>
      <point x="942" y="868"/>
      <point x="840" y="766"/>
      <point x="840" y="640" type="curve" smooth="yes"/>
      <point x="840" y="514"/>
      <point x="942" y="412"/>
      <point x="1068" y="412" type="curve" smooth="yes"/>
      <point x="1176" y="412"/>
      <point x="1264" y="324"/>
      <point x="1264" y="216" type="curve" smooth="yes"/>
      <point x="1264" y="212" type="line" smooth="yes"/>
      <point x="1264" y="104"/>
      <point x="1176" y="16"/>
      <point x="1068" y="16" type="curve" smooth="yes"/>
      <point x="960" y="16"/>
      <point x="872" y="104"/>
      <point x="872" y="212" type="curve" smooth="yes"/>
      <point x="872" y="220"/>
      <point x="864" y="228"/>
      <point x="856" y="228" type="curve" smooth="yes"/>
      <point x="848" y="228"/>
      <point x="840" y="220"/>
      <point x="840" y="212" type="curve" smooth="yes"/>
      <point x="840" y="86"/>
      <point x="942" y="-16"/>
      <point x="1068" y="-16" type="curve" smooth="yes"/>
      <point x="1194" y="-16"/>
      <point x="1296" y="86"/>
      <point x="1296" y="212" type="curve" smooth="yes"/>
      <point x="1296" y="216" type="line" smooth="yes"/>
      <point x="1296" y="342"/>
      <point x="1194" y="444"/>
    </contour>
  </outline>
</glyph>
<glyph name="Euro" format="1">
  <advance width="666.0"/>
  <unicode hex="20AC"/>
  <outline>
    <contour>
      <point x="586" y="212" type="curve"/>
      <point x="586" y="220"/>
      <point x="578" y="228"/>
      <point x="570" y="228" type="curve" smooth="yes"/>
      <point x="562" y="228"/>
      <point x="554" y="220"/>
      <point x="554" y="212" type="curve"/>
      <point x="554" y="104"/>
      <point x="466" y="16"/>
      <point x="358" y="16" type="curve" smooth="yes"/>
      <point x="250" y="16"/>
      <point x="162" y="104"/>
      <point x="162" y="212" type="curve" smooth="yes"/>
      <point x="162" y="574" type="line"/>
      <point x="311" y="574" type="line" smooth="yes"/>
      <point x="320" y="574"/>
      <point x="327" y="581"/>
      <point x="327" y="590" type="curve" smooth="yes"/>
      <point x="327" y="599"/>
      <point x="320" y="606"/>
      <point x="311" y="606" type="curve" smooth="yes"/>
      <point x="163" y="606" type="line"/>
      <point x="163" y="654" type="line"/>
      <point x="311" y="654" type="line" smooth="yes"/>
      <point x="320" y="654"/>
      <point x="327" y="661"/>
      <point x="327" y="670" type="curve" smooth="yes"/>
      <point x="327" y="679"/>
      <point x="320" y="686"/>
      <point x="311" y="686" type="curve" smooth="yes"/>
      <point x="162" y="686" type="line"/>
      <point x="162" y="988" type="line" smooth="yes"/>
      <point x="162" y="1096"/>
      <point x="250" y="1184"/>
      <point x="358" y="1184" type="curve" smooth="yes"/>
      <point x="466" y="1184"/>
      <point x="554" y="1096"/>
      <point x="554" y="988" type="curve"/>
      <point x="554" y="980"/>
      <point x="562" y="972"/>
      <point x="570" y="972" type="curve" smooth="yes"/>
      <point x="578" y="972"/>
      <point x="586" y="980"/>
      <point x="586" y="988" type="curve"/>
      <point x="586" y="1114"/>
      <point x="484" y="1216"/>
      <point x="358" y="1216" type="curve" smooth="yes"/>
      <point x="232" y="1216"/>
      <point x="130" y="1114"/>
      <point x="130" y="988" type="curve" smooth="yes"/>
      <point x="130" y="686" type="line"/>
      <point x="76" y="686" type="line" smooth="yes"/>
      <point x="67" y="686"/>
      <point x="60" y="679"/>
      <point x="60" y="670" type="curve" smooth="yes"/>
      <point x="60" y="661"/>
      <point x="67" y="654"/>
      <point x="76" y="654" type="curve" smooth="yes"/>
      <point x="130" y="654" type="line"/>
      <point x="130" y="606" type="line"/>
      <point x="76" y="606" type="line" smooth="yes"/>
      <point x="67" y="606"/>
      <point x="60" y="599"/>
      <point x="60" y="590" type="curve" smooth="yes"/>
      <point x="60" y="581"/>
      <point x="67" y="574"/>
      <point x="76" y="574" type="curve" smooth="yes"/>
      <point x="130" y="574" type="line"/>
      <point x="130" y="212" type="line" smooth="yes"/>
      <point x="130" y="86"/>
      <point x="232" y="-16"/>
      <point x="358" y="-16" type="curve" smooth="yes"/>
      <point x="484" y="-16"/>
      <point x="586" y="86"/>
    </contour>
  </outline>
</glyph>
<glyph name="partialdiff" format="1">
  <advance width="616.0"/>
  <unicode hex="2202"/>
  <outline>
    <contour>
      <point x="308" y="1212" type="curve"/>
      <point x="300" y="1212"/>
      <point x="292" y="1204"/>
      <point x="292" y="1196" type="curve" smooth="yes"/>
      <point x="292" y="1188"/>
      <point x="300" y="1180"/>
      <point x="308" y="1180" type="curve"/>
      <point x="416" y="1180"/>
      <point x="504" y="1092"/>
      <point x="504" y="984" type="curve" smooth="yes"/>
      <point x="504" y="772" type="line"/>
      <point x="464" y="840"/>
      <point x="392" y="884"/>
      <point x="308" y="884" type="curve" smooth="yes"/>
      <point x="182" y="884"/>
      <point x="80" y="782"/>
      <point x="80" y="656" type="curve" smooth="yes"/>
      <point x="80" y="196" type="line" smooth="yes"/>
      <point x="80" y="70"/>
      <point x="182" y="-32"/>
      <point x="308" y="-32" type="curve" smooth="yes"/>
      <point x="434" y="-32"/>
      <point x="536" y="70"/>
      <point x="536" y="196" type="curve" smooth="yes"/>
      <point x="536" y="984" type="line" smooth="yes"/>
      <point x="536" y="1110"/>
      <point x="434" y="1212"/>
    </contour>
    <contour>
      <point x="112" y="196" type="curve"/>
      <point x="112" y="656" type="line" smooth="yes"/>
      <point x="112" y="764"/>
      <point x="200" y="852"/>
      <point x="308" y="852" type="curve" smooth="yes"/>
      <point x="416" y="852"/>
      <point x="504" y="764"/>
      <point x="504" y="656" type="curve" smooth="yes"/>
      <point x="504" y="196" type="line" smooth="yes"/>
      <point x="504" y="88"/>
      <point x="416" y="0"/>
      <point x="308" y="0" type="curve" smooth="yes"/>
      <point x="200" y="0"/>
      <point x="112" y="88"/>
    </contour>
  </outline>
</glyph>
<glyph name="minus" format="1">
  <advance width="612.0"/>
  <unicode hex="2212"/>
  <outline>
    <contour>
      <point x="516" y="410" type="line" smooth="yes"/>
      <point x="524" y="410"/>
      <point x="532" y="418"/>
      <point x="532" y="426" type="curve" smooth="yes"/>
      <point x="532" y="436"/>
      <point x="524" y="442"/>
      <point x="516" y="442" type="curve"/>
      <point x="96" y="442" type="line" smooth="yes"/>
      <point x="88" y="442"/>
      <point x="80" y="436"/>
      <point x="80" y="426" type="curve" smooth="yes"/>
      <point x="80" y="418"/>
      <point x="88" y="410"/>
      <point x="96" y="410" type="curve"/>
    </contour>
  </outline>
</glyph>
<glyph name="radical" format="1">
  <advance width="651"/>
  <unicode hex="221A"/>
  <outline>
    <contour>
      <point x="249" y="-32" type="curve" smooth="yes"/>
      <point x="257" y="-32"/>
      <point x="263" y="-26"/>
      <point x="265" y="-18" type="curve" smooth="yes"/>
      <point x="475" y="1168" type="line"/>
      <point x="635" y="1168" type="line"/>
      <point x="643" y="1168"/>
      <point x="651" y="1176"/>
      <point x="651" y="1184" type="curve" smooth="yes"/>
      <point x="651" y="1192"/>
      <point x="643" y="1200"/>
      <point x="635" y="1200" type="curve" smooth="yes"/>
      <point x="461" y="1200" type="line" smooth="yes"/>
      <point x="460" y="1200" type="line"/>
      <point x="459" y="1200" type="line" smooth="yes"/>
      <point x="454" y="1200"/>
      <point x="449" y="1196"/>
      <point x="447" y="1190" type="curve"/>
      <point x="445" y="1186"/>
      <point x="445" y="1187"/>
      <point x="446" y="1188" type="curve"/>
      <point x="445" y="1186" type="line" smooth="yes"/>
      <point x="249" y="76" type="line"/>
      <point x="112" y="854" type="line" smooth="yes"/>
      <point x="110" y="862"/>
      <point x="104" y="868"/>
      <point x="96" y="868" type="curve" smooth="yes"/>
      <point x="86" y="868"/>
      <point x="80" y="860"/>
      <point x="80" y="852" type="curve"/>
      <point x="80" y="850" type="line"/>
      <point x="233" y="-18" type="line" smooth="yes"/>
      <point x="234" y="-26"/>
      <point x="241" y="-32"/>
    </contour>
  </outline>
</glyph>
<glyph name="infinity" format="1">
  <advance width="1248"/>
  <unicode hex="221E"/>
  <outline>
    <contour>
      <point x="412" y="649" type="curve"/>
      <point x="308" y="649" type="line" smooth="yes"/>
      <point x="182" y="649"/>
      <point x="80" y="547"/>
      <point x="80" y="421" type="curve" smooth="yes"/>
      <point x="80" y="295"/>
      <point x="182" y="193"/>
      <point x="308" y="193" type="curve" smooth="yes"/>
      <point x="412" y="193" type="line" smooth="yes"/>
      <point x="508" y="193"/>
      <point x="590" y="253"/>
      <point x="624" y="337" type="curve"/>
      <point x="658" y="253"/>
      <point x="740" y="193"/>
      <point x="836" y="193" type="curve" smooth="yes"/>
      <point x="940" y="193" type="line" smooth="yes"/>
      <point x="1066" y="193"/>
      <point x="1168" y="295"/>
      <point x="1168" y="421" type="curve" smooth="yes"/>
      <point x="1168" y="547"/>
      <point x="1066" y="649"/>
      <point x="940" y="649" type="curve" smooth="yes"/>
      <point x="836" y="649" type="line" smooth="yes"/>
      <point x="740" y="649"/>
      <point x="658" y="589"/>
      <point x="624" y="505" type="curve"/>
      <point x="590" y="589"/>
      <point x="508" y="649"/>
    </contour>
    <contour>
      <point x="836" y="617" type="curve"/>
      <point x="940" y="617" type="line" smooth="yes"/>
      <point x="1048" y="617"/>
      <point x="1136" y="529"/>
      <point x="1136" y="421" type="curve" smooth="yes"/>
      <point x="1136" y="313"/>
      <point x="1048" y="225"/>
      <point x="940" y="225" type="curve" smooth="yes"/>
      <point x="836" y="225" type="line" smooth="yes"/>
      <point x="728" y="225"/>
      <point x="640" y="313"/>
      <point x="640" y="421" type="curve" smooth="yes"/>
      <point x="640" y="529"/>
      <point x="728" y="617"/>
    </contour>
    <contour>
      <point x="608" y="421" type="curve" smooth="yes"/>
      <point x="608" y="313"/>
      <point x="520" y="225"/>
      <point x="412" y="225" type="curve" smooth="yes"/>
      <point x="308" y="225" type="line" smooth="yes"/>
      <point x="200" y="225"/>
      <point x="112" y="313"/>
      <point x="112" y="421" type="curve" smooth="yes"/>
      <point x="112" y="529"/>
      <point x="200" y="617"/>
      <point x="308" y="617" type="curve" smooth="yes"/>
      <point x="412" y="617" type="line" smooth="yes"/>
      <point x="520" y="617"/>
      <point x="608" y="529"/>
    </contour>
  </outline>
</glyph>
<glyph name="notequal" format="1">
  <advance width="616.0"/>
  <unicode hex="2260"/>
  <outline>
    <contour>
      <point x="520" y="286" type="line"/>
      <point x="528" y="286"/>
      <point x="536" y="294"/>
      <point x="536" y="302" type="curve" smooth="yes"/>
      <point x="536" y="310"/>
      <point x="528" y="318"/>
      <point x="520" y="318" type="curve" smooth="yes"/>
      <point x="96" y="318" type="line" smooth="yes"/>
      <point x="88" y="318"/>
      <point x="80" y="310"/>
      <point x="80" y="302" type="curve" smooth="yes"/>
      <point x="80" y="294"/>
      <point x="88" y="286"/>
      <point x="96" y="286" type="curve" smooth="yes"/>
    </contour>
    <contour>
      <point x="520" y="526" type="line"/>
      <point x="528" y="526"/>
      <point x="536" y="534"/>
      <point x="536" y="542" type="curve" smooth="yes"/>
      <point x="536" y="550"/>
      <point x="528" y="558"/>
      <point x="520" y="558" type="curve" smooth="yes"/>
      <point x="96" y="558" type="line" smooth="yes"/>
      <point x="88" y="558"/>
      <point x="80" y="550"/>
      <point x="80" y="542" type="curve" smooth="yes"/>
      <point x="80" y="534"/>
      <point x="88" y="526"/>
      <point x="96" y="526" type="curve" smooth="yes"/>
    </contour>
    <contour>
      <point x="361" y="632" type="line" smooth="yes"/>
      <point x="362" y="640"/>
      <point x="355" y="649"/>
      <point x="348" y="651" type="curve" smooth="yes"/>
      <point x="338" y="652"/>
      <point x="330" y="645"/>
      <point x="329" y="638" type="curve"/>
      <point x="255" y="220" type="line" smooth="yes"/>
      <point x="254" y="212"/>
      <point x="259" y="203"/>
      <point x="268" y="201" type="curve" smooth="yes"/>
      <point x="276" y="200"/>
      <point x="286" y="207"/>
      <point x="287" y="214" type="curve"/>
    </contour>
  </outline>
</glyph>
<glyph name="lessequal" format="1">
  <advance width="616.0"/>
  <unicode hex="2264"/>
  <outline>
    <contour>
      <point x="96" y="-16" type="curve"/>
      <point x="516" y="-16" type="line" smooth="yes"/>
      <point x="524" y="-16"/>
      <point x="532" y="-8"/>
      <point x="532" y="0" type="curve" smooth="yes"/>
      <point x="532" y="10"/>
      <point x="524" y="16"/>
      <point x="516" y="16" type="curve"/>
      <point x="96" y="16" type="line" smooth="yes"/>
      <point x="88" y="16"/>
      <point x="80" y="10"/>
      <point x="80" y="0" type="curve" smooth="yes"/>
      <point x="80" y="-8"/>
      <point x="88" y="-16"/>
    </contour>
    <contour>
      <point x="525" y="68"/>
      <point x="529" y="70"/>
      <point x="532" y="74" type="curve" smooth="yes"/>
      <point x="535" y="77"/>
      <point x="536" y="81"/>
      <point x="536" y="84" type="curve" smooth="yes"/>
      <point x="536" y="89"/>
      <point x="534" y="93"/>
      <point x="530" y="96" type="curve" smooth="yes"/>
      <point x="121" y="426" type="line"/>
      <point x="530" y="754" type="line" smooth="yes"/>
      <point x="534" y="757"/>
      <point x="536" y="761"/>
      <point x="536" y="766" type="curve" smooth="yes"/>
      <point x="536" y="769"/>
      <point x="535" y="773"/>
      <point x="532" y="776" type="curve" smooth="yes"/>
      <point x="529" y="780"/>
      <point x="525" y="782"/>
      <point x="520" y="782" type="curve" smooth="yes"/>
      <point x="517" y="782"/>
      <point x="513" y="781"/>
      <point x="510" y="778" type="curve" smooth="yes"/>
      <point x="86" y="438" type="line" smooth="yes"/>
      <point x="82" y="435"/>
      <point x="79" y="431"/>
      <point x="79" y="426" type="curve" smooth="yes"/>
      <point x="79" y="422"/>
      <point x="82" y="417"/>
      <point x="86" y="414" type="curve" smooth="yes"/>
      <point x="510" y="72" type="line" smooth="yes"/>
      <point x="513" y="69"/>
      <point x="517" y="68"/>
      <point x="520" y="68" type="curve" smooth="yes"/>
    </contour>
  </outline>
</glyph>
<glyph name="uni24C5" format="1">
  <advance width="500"/>
  <unicode hex="24C5"/>
  <outline>
    <contour>
      <point x="308" y="-32" type="curve" smooth="yes"/>
      <point x="434" y="-32"/>
      <point x="536" y="70"/>
      <point x="536" y="196" type="curve" smooth="yes"/>
      <point x="536" y="1004" type="line" smooth="yes"/>
      <point x="536" y="1130"/>
      <point x="434" y="1232"/>
      <point x="308" y="1232" type="curve" smooth="yes"/>
      <point x="182" y="1232"/>
      <point x="80" y="1130"/>
      <point x="80" y="1004" type="curve" smooth="yes"/>
      <point x="80" y="196" type="line" smooth="yes"/>
      <point x="80" y="70"/>
      <point x="182" y="-32"/>
    </contour>
    <contour>
      <point x="308" y="1200" type="curve" smooth="yes"/>
      <point x="416" y="1200"/>
      <point x="504" y="1112"/>
      <point x="504" y="1004" type="curve" smooth="yes"/>
      <point x="504" y="196" type="line" smooth="yes"/>
      <point x="504" y="88"/>
      <point x="416" y="0"/>
      <point x="308" y="0" type="curve" smooth="yes"/>
      <point x="200" y="0"/>
      <point x="112" y="88"/>
      <point x="112" y="196" type="curve" smooth="yes"/>
      <point x="112" y="1004" type="line" smooth="yes"/>
      <point x="112" y="1112"/>
      <point x="200" y="1200"/>
    </contour>
    <contour>
      <point x="310" y="959" type="line"/>
      <point x="368" y="959"/>
      <point x="416" y="911"/>
      <point x="416" y="853" type="curve"/>
      <point x="416" y="723" type="line"/>
      <point x="416" y="663"/>
      <point x="368" y="615"/>
      <point x="310" y="615" type="curve"/>
      <point x="203" y="615" type="line"/>
      <point x="203" y="959" type="line"/>
    </contour>
    <contour>
      <point x="318" y="583" type="line"/>
      <point x="388" y="587"/>
      <point x="448" y="650"/>
      <point x="448" y="723" type="curve"/>
      <point x="448" y="853" type="line"/>
      <point x="448" y="927"/>
      <point x="384" y="991"/>
      <point x="310" y="991" type="curve"/>
      <point x="187" y="991" type="line"/>
      <point x="179" y="991"/>
      <point x="171" y="983"/>
      <point x="171" y="975" type="curve" smooth="yes"/>
      <point x="171" y="246" type="line"/>
      <point x="171" y="238"/>
      <point x="179" y="230"/>
      <point x="187" y="230" type="curve" smooth="yes"/>
      <point x="195" y="230"/>
      <point x="203" y="238"/>
      <point x="203" y="246" type="curve"/>
      <point x="203" y="583" type="line"/>
    </contour>
  </outline>
</glyph>
<glyph name="zero.oldstyle" format="1">
  <advance width="616.0"/>
  <unicode hex="F730"/>
  <outline>
    <contour>
      <point x="308" y="-32" type="curve" smooth="yes"/>
      <point x="434" y="-32"/>
      <point x="536" y="70"/>
      <point x="536" y="196" type="curve" smooth="yes"/>
      <point x="536" y="196"/>
      <point x="536" y="640"/>
      <point x="536" y="640" type="curve" smooth="yes"/>
      <point x="536" y="766"/>
      <point x="434" y="868"/>
      <point x="308" y="868" type="curve" smooth="yes"/>
      <point x="182" y="868"/>
      <point x="80" y="766"/>
      <point x="80" y="640" type="curve" smooth="yes"/>
      <point x="80" y="640"/>
      <point x="80" y="196"/>
      <point x="80" y="196" type="curve" smooth="yes"/>
      <point x="80" y="70"/>
      <point x="182" y="-32"/>
    </contour>
    <contour>
      <point x="112" y="640" type="line" smooth="yes"/>
      <point x="112" y="748"/>
      <point x="200" y="836"/>
      <point x="308" y="836" type="curve" smooth="yes"/>
      <point x="414" y="836"/>
      <point x="500" y="752"/>
      <point x="504" y="647" type="curve"/>
      <point x="112" y="236" type="line"/>
    </contour>
    <contour>
      <point x="308" y="0" type="curve" smooth="yes"/>
      <point x="202" y="0"/>
      <point x="116" y="84"/>
      <point x="112" y="189" type="curve"/>
      <point x="504" y="600" type="line"/>
      <point x="504" y="196" type="line" smooth="yes"/>
      <point x="504" y="88"/>
      <point x="416" y="0"/>
    </contour>
  </outline>
</glyph>
<glyph name="two.oldstyle" format="1">
  <advance width="616.0"/>
  <unicode hex="F732"/>
  <outline>
    <contour>
      <point x="308" y="316" type="curve" smooth="yes"/>
      <point x="434" y="316"/>
      <point x="536" y="418"/>
      <point x="536" y="544" type="curve" smooth="yes"/>
      <point x="536" y="640" type="line" smooth="yes"/>
      <point x="536" y="766"/>
      <point x="434" y="868"/>
      <point x="308" y="868" type="curve" smooth="yes"/>
      <point x="182" y="868"/>
      <point x="80" y="766"/>
      <point x="80" y="640" type="curve" smooth="yes"/>
      <point x="80" y="632"/>
      <point x="88" y="624"/>
      <point x="96" y="624" type="curve" smooth="yes"/>
      <point x="104" y="624"/>
      <point x="112" y="632"/>
      <point x="112" y="640" type="curve" smooth="yes"/>
      <point x="112" y="748"/>
      <point x="200" y="836"/>
      <point x="308" y="836" type="curve" smooth="yes"/>
      <point x="416" y="836"/>
      <point x="504" y="748"/>
      <point x="504" y="640" type="curve" smooth="yes"/>
      <point x="504" y="544" type="line" smooth="yes"/>
      <point x="504" y="436"/>
      <point x="416" y="348"/>
      <point x="308" y="348" type="curve" smooth="yes"/>
      <point x="182" y="348"/>
      <point x="80" y="246"/>
      <point x="80" y="120" type="curve" smooth="yes"/>
      <point x="80" y="16" type="line" smooth="yes"/>
      <point x="80" y="6"/>
      <point x="86" y="0"/>
      <point x="96" y="0" type="curve" smooth="yes"/>
      <point x="520" y="0" type="line" smooth="yes"/>
      <point x="528" y="0"/>
      <point x="536" y="8"/>
      <point x="536" y="16" type="curve" smooth="yes"/>
      <point x="536" y="24"/>
      <point x="528" y="32"/>
      <point x="520" y="32" type="curve" smooth="yes"/>
      <point x="112" y="32" type="line"/>
      <point x="112" y="120" type="line" smooth="yes"/>
      <point x="112" y="228"/>
      <point x="200" y="316"/>
    </contour>
  </outline>
</glyph>
<glyph name="three.oldstyle" format="1">
  <advance width="616.0"/>
  <unicode hex="F733"/>
  <outline>
    <contour>
      <point x="308" y="-396" type="curve" smooth="yes"/>
      <point x="434" y="-396"/>
      <point x="536" y="-294"/>
      <point x="536" y="-168" type="curve" smooth="yes"/>
      <point x="536" y="122" type="line" smooth="yes"/>
      <point x="536" y="218"/>
      <point x="476" y="300"/>
      <point x="392" y="334" type="curve"/>
      <point x="476" y="366"/>
      <point x="536" y="448"/>
      <point x="536" y="546" type="curve" smooth="yes"/>
      <point x="536" y="640" type="line" smooth="yes"/>
      <point x="536" y="766"/>
      <point x="434" y="868"/>
      <point x="308" y="868" type="curve" smooth="yes"/>
      <point x="182" y="868"/>
      <point x="80" y="766"/>
      <point x="80" y="640" type="curve" smooth="yes"/>
      <point x="80" y="632"/>
      <point x="88" y="624"/>
      <point x="96" y="624" type="curve" smooth="yes"/>
      <point x="104" y="624"/>
      <point x="112" y="632"/>
      <point x="112" y="640" type="curve" smooth="yes"/>
      <point x="112" y="748"/>
      <point x="200" y="836"/>
      <point x="308" y="836" type="curve" smooth="yes"/>
      <point x="416" y="836"/>
      <point x="504" y="748"/>
      <point x="504" y="640" type="curve" smooth="yes"/>
      <point x="504" y="546" type="line" smooth="yes"/>
      <point x="504" y="436"/>
      <point x="418" y="350"/>
      <point x="308" y="350" type="curve" smooth="yes"/>
      <point x="300" y="350"/>
      <point x="292" y="342"/>
      <point x="292" y="334" type="curve" smooth="yes"/>
      <point x="292" y="324"/>
      <point x="300" y="318"/>
      <point x="308" y="318" type="curve" smooth="yes"/>
      <point x="416" y="318"/>
      <point x="504" y="230"/>
      <point x="504" y="122" type="curve" smooth="yes"/>
      <point x="504" y="-168" type="line" smooth="yes"/>
      <point x="504" y="-276"/>
      <point x="416" y="-364"/>
      <point x="308" y="-364" type="curve" smooth="yes"/>
      <point x="200" y="-364"/>
      <point x="112" y="-276"/>
      <point x="112" y="-168" type="curve" smooth="yes"/>
      <point x="112" y="-160"/>
      <point x="104" y="-152"/>
      <point x="96" y="-152" type="curve" smooth="yes"/>
      <point x="88" y="-152"/>
      <point x="80" y="-160"/>
      <point x="80" y="-168" type="curve" smooth="yes"/>
      <point x="80" y="-294"/>
      <point x="182" y="-396"/>
    </contour>
  </outline>
</glyph>
<glyph name="seven.oldstyle" format="1">
  <advance width="616.0"/>
  <unicode hex="F737"/>
  <outline>
    <contour>
      <point x="308" y="-348" type="curve" smooth="yes"/>
      <point x="316" y="-348"/>
      <point x="322" y="-342"/>
      <point x="324" y="-334" type="curve" smooth="yes"/>
      <point x="536" y="834" type="line"/>
      <point x="536" y="842"/>
      <point x="530" y="852"/>
      <point x="520" y="852" type="curve" smooth="yes"/>
      <point x="96" y="852" type="line" smooth="yes"/>
      <point x="88" y="852"/>
      <point x="80" y="844"/>
      <point x="80" y="836" type="curve" smooth="yes"/>
      <point x="80" y="828"/>
      <point x="88" y="820"/>
      <point x="96" y="820" type="curve" smooth="yes"/>
      <point x="500" y="820" type="line"/>
      <point x="292" y="-330" type="line"/>
      <point x="292" y="-332"/>
      <point x="292" y="-332"/>
      <point x="292" y="-334" type="curve" smooth="yes"/>
      <point x="292" y="-340"/>
      <point x="298" y="-348"/>
    </contour>
  </outline>
</glyph>
<glyph name="nine.oldstyle" format="1">
  <advance width="616.0"/>
  <unicode hex="F739"/>
  <outline>
    <contour>
      <point x="308" y="-395" type="curve" smooth="yes"/>
      <point x="434" y="-395"/>
      <point x="536" y="-293"/>
      <point x="536" y="-167" type="curve" smooth="yes"/>
      <point x="536" y="641" type="line" smooth="yes"/>
      <point x="536" y="767"/>
      <point x="434" y="869"/>
      <point x="308" y="869" type="curve" smooth="yes"/>
      <point x="182" y="869"/>
      <point x="80" y="767"/>
      <point x="80" y="641" type="curve" smooth="yes"/>
      <point x="80" y="212" type="line" smooth="yes"/>
      <point x="80" y="86"/>
      <point x="182" y="-16"/>
      <point x="308" y="-16" type="curve" smooth="yes"/>
      <point x="392" y="-16"/>
      <point x="464" y="28"/>
      <point x="504" y="96" type="curve"/>
      <point x="504" y="-167" type="line" smooth="yes"/>
      <point x="504" y="-275"/>
      <point x="416" y="-363"/>
      <point x="308" y="-363" type="curve" smooth="yes"/>
      <point x="200" y="-363"/>
      <point x="112" y="-275"/>
      <point x="112" y="-167" type="curve" smooth="yes"/>
      <point x="112" y="-159"/>
      <point x="104" y="-151"/>
      <point x="96" y="-151" type="curve" smooth="yes"/>
      <point x="88" y="-151"/>
      <point x="80" y="-159"/>
      <point x="80" y="-167" type="curve" smooth="yes"/>
      <point x="80" y="-293"/>
      <point x="182" y="-395"/>
    </contour>
    <contour>
      <point x="308" y="837" type="curve" smooth="yes"/>
      <point x="416" y="837"/>
      <point x="504" y="749"/>
      <point x="504" y="641" type="curve" smooth="yes"/>
      <point x="504" y="212" type="line" smooth="yes"/>
      <point x="504" y="104"/>
      <point x="416" y="16"/>
      <point x="308" y="16" type="curve" smooth="yes"/>
      <point x="200" y="16"/>
      <point x="112" y="104"/>
      <point x="112" y="212" type="curve" smooth="yes"/>
      <point x="112" y="641" type="line" smooth="yes"/>
      <point x="112" y="749"/>
      <point x="200" y="837"/>
    </contour>
  </outline>
</glyph>
<glyph name="seven.sup" format="1">
  <advance width="404.09500793"/>
  <outline>
    <contour>
      <point x="199" y="584" type="curve" smooth="yes"/>
      <point x="208" y="583"/>
      <point x="216" y="589"/>
      <point x="218" y="597" type="curve" smooth="yes"/>
      <point x="324" y="1181" type="line" smooth="yes"/>
      <point x="325" y="1191"/>
      <point x="318" y="1200"/>
      <point x="308" y="1200" type="curve" smooth="yes"/>
      <point x="96" y="1200" type="line" smooth="yes"/>
      <point x="87" y="1200"/>
      <point x="80" y="1193"/>
      <point x="80" y="1184" type="curve" smooth="yes"/>
      <point x="80" y="1175"/>
      <point x="87" y="1168"/>
      <point x="96" y="1168" type="curve" smooth="yes"/>
      <point x="289" y="1168" type="line"/>
      <point x="186" y="603" type="line" smooth="yes"/>
      <point x="185" y="594"/>
      <point x="191" y="586"/>
    </contour>
  </outline>
</glyph>
